 <svg version="1.0" xmlns="http://www.w3.org/2000/svg"  width="1500.000000pt" height="1500.000000pt" viewBox="0 0 1500.000000 1500.000000"  preserveAspectRatio="xMidYMid meet">  <g transform="translate(0.000000,1500.000000) scale(0.100000,-0.100000)" fill="#000000" stroke="none"> <path d="M5443 13688 c-67 -9 -71 -11 -60 -29 13 -20 47 -25 63 -10 13 14 228 22 299 11 33 -5 96 -18 140 -30 44 -12 91 -24 105 -27 14 -3 32 -12 41 -20 9 -8 34 -19 55 -24 22 -6 46 -17 54 -24 8 -7 46 -25 84 -39 38 -15 84 -36 103 -47 18 -12 40 -18 49 -15 23 9 0 43 -36 51 -16 4 -51 17 -77 31 -27 13 -52 24 -56 24 -5 0 -20 9 -34 20 -14 11 -32 20 -39 20 -8 0 -36 14 -62 30 -27 17 -60 30 -74 30 -14 0 -38 7 -55 15 -16 8 -53 19 -81 25 -75 14 -335 19 -419 8z"/> <path d="M7640 13685 c-41 -6 -85 -16 -97 -23 -12 -6 -44 -17 -71 -23 -28 -5 -53 -17 -56 -25 -3 -8 -15 -14 -26 -14 -11 0 -23 -7 -26 -15 -4 -8 -17 -15 -29 -15 -13 0 -26 -4 -29 -9 -8 -12 -135 -76 -168 -84 -16 -4 -28 -12 -28 -17 0 -20 66 -9 120 20 30 16 70 36 88 44 17 8 32 20 32 25 0 6 7 11 15 11 8 0 23 4 33 9 18 10 119 46 217 77 50 16 90 19 250 19 188 -1 190 -1 236 -28 28 -17 60 -27 84 -27 40 0 115 -30 150 -60 11 -10 31 -21 45 -25 14 -4 45 -23 70 -41 61 -46 64 -48 86 -77 10 -14 34 -28 52 -32 28 -6 32 -4 32 14 0 11 -9 22 -22 27 -12 3 -42 25 -67 48 -25 24 -63 53 -83 65 -21 12 -38 27 -38 32 0 5 -11 9 -24 9 -14 0 -28 5 -32 11 -11 19 -131 69 -164 69 -17 0 -41 7 -53 15 -52 33 -331 45 -497 20z"/> <path d="M5240 13631 c-62 -21 -184 -92 -237 -136 -6 -5 -28 -21 -49 -35 -66 -45 -134 -112 -174 -173 -22 -32 -40 -63 -40 -67 0 -4 -12 -20 -26 -36 -14 -16 -37 -47 -51 -69 -14 -22 -38 -51 -53 -65 -15 -14 -30 -34 -34 -45 -7 -24 -69 -95 -83 -95 -5 0 -20 -12 -34 -26 -13 -14 -53 -45 -89 -69 -36 -24 -82 -57 -104 -74 -21 -17 -46 -31 -55 -31 -9 0 -25 -6 -36 -13 -28 -19 -128 -53 -213 -73 -40 -9 -75 -21 -79 -27 -10 -17 106 -1 192 27 71 23 103 37 205 85 48 23 71 39 126 87 31 27 64 53 75 58 10 5 19 15 19 22 0 8 12 21 28 31 43 27 82 65 99 98 9 17 22 34 29 38 8 4 14 13 14 20 0 7 12 23 26 36 14 14 36 46 50 73 13 26 29 48 34 48 6 0 10 7 10 15 0 8 11 25 25 37 14 12 25 26 25 32 0 25 179 176 209 176 7 0 40 23 73 50 33 28 69 50 80 50 11 0 26 7 34 15 9 8 29 15 45 15 38 0 69 16 69 35 0 20 -22 18 -110 -14z"/> <path d="M7008 13444 c-13 -13 -148 -34 -218 -34 -65 0 -72 -2 -60 -15 19 -18 127 -23 157 -6 12 6 41 11 65 11 40 0 127 26 144 43 4 4 -13 7 -38 7 -24 0 -47 -3 -50 -6z"/> <path d="M6467 13424 c-14 -15 7 -24 52 -24 31 0 53 -5 61 -15 14 -17 95 -21 105 -4 11 17 0 21 -92 35 -102 15 -117 16 -126 8z"/> <path d="M8624 13345 c-7 -17 10 -47 56 -96 17 -19 38 -48 45 -64 8 -17 35 -53 60 -80 24 -28 45 -55 45 -61 0 -6 12 -25 28 -42 15 -16 43 -51 62 -77 19 -25 50 -53 68 -60 17 -8 32 -18 32 -23 0 -6 19 -20 43 -32 23 -12 58 -36 77 -55 35 -32 156 -95 185 -95 8 0 19 -9 25 -20 6 -11 20 -19 33 -18 12 0 47 -6 77 -15 30 -8 93 -18 140 -22 47 -4 90 -11 96 -16 6 -5 51 -10 100 -12 50 -3 100 -9 111 -16 12 -6 50 -11 85 -11 37 0 72 -6 83 -14 11 -7 33 -16 49 -20 16 -4 41 -16 54 -27 14 -10 32 -19 41 -19 9 0 30 -9 46 -20 17 -11 38 -20 49 -20 10 0 33 -15 52 -34 19 -19 44 -36 57 -39 13 -4 27 -19 34 -37 6 -16 22 -34 36 -39 14 -6 33 -22 44 -36 10 -14 35 -44 56 -66 20 -22 37 -47 37 -54 0 -7 13 -24 29 -37 16 -14 32 -40 36 -59 4 -19 15 -41 25 -49 22 -19 70 -159 70 -204 0 -19 4 -37 9 -40 5 -3 12 -54 16 -113 7 -104 17 -139 36 -127 8 5 6 69 -7 189 -7 76 -34 199 -45 210 -5 5 -9 21 -9 37 0 15 -8 35 -19 45 -10 10 -21 30 -25 45 -3 14 -15 37 -25 50 -55 66 -79 96 -101 127 -13 18 -40 52 -61 75 -22 22 -39 44 -39 48 0 4 -15 15 -32 24 -18 9 -39 26 -47 37 -7 10 -29 25 -47 33 -19 8 -34 18 -34 23 0 5 -17 16 -38 24 -21 8 -44 22 -51 31 -8 9 -18 16 -23 16 -6 0 -24 6 -41 14 -129 59 -161 67 -307 76 -220 14 -411 44 -487 75 -20 8 -46 15 -59 15 -13 0 -27 6 -31 13 -4 8 -23 19 -41 25 -32 11 -55 27 -125 83 -18 15 -42 29 -54 33 -13 4 -23 11 -23 16 0 5 -8 11 -18 14 -25 8 -182 169 -182 186 0 6 -15 27 -34 47 -18 21 -41 52 -50 68 -34 61 -146 205 -159 205 -4 0 -10 -7 -13 -15z"/> <path d="M6390 13228 c-30 -3 -80 -6 -110 -7 -31 -1 -60 -5 -65 -10 -6 -5 -55 -12 -110 -14 -55 -3 -113 -11 -130 -18 -16 -6 -61 -15 -100 -18 -54 -5 -71 -10 -73 -23 -5 -24 31 -31 73 -13 21 8 60 15 87 15 27 0 59 6 71 14 12 7 64 17 115 20 51 4 104 11 118 16 15 6 216 10 488 10 381 0 471 -3 512 -15 27 -8 73 -15 102 -15 30 0 78 -7 108 -16 31 -9 62 -13 71 -9 60 22 -155 73 -318 74 -36 1 -69 4 -72 7 -8 9 -697 11 -767 2z"/> <path d="M7580 13150 c0 -5 5 -10 11 -10 6 0 25 -7 42 -15 18 -8 66 -19 107 -24 85 -11 186 -32 275 -56 33 -10 76 -19 95 -22 19 -3 38 -10 41 -16 4 -5 63 -29 130 -52 68 -22 134 -47 146 -53 12 -7 27 -12 33 -12 6 0 28 -11 50 -25 53 -34 114 -33 92 2 -9 13 -69 44 -96 49 -70 13 -87 17 -92 25 -3 5 -13 9 -23 9 -9 0 -22 5 -28 11 -15 15 -105 45 -161 54 -24 4 -62 18 -85 31 -23 13 -66 26 -97 30 -30 4 -64 13 -75 20 -11 8 -33 14 -49 14 -16 0 -43 4 -60 9 -34 11 -212 41 -239 41 -9 0 -17 -4 -17 -10z"/> <path d="M5675 13133 c-16 -3 -37 -10 -45 -17 -8 -7 -46 -18 -85 -26 -76 -14 -161 -38 -270 -77 -38 -14 -81 -25 -95 -26 -29 -2 -42 -37 -14 -37 24 0 145 41 169 57 11 7 29 13 40 13 26 1 199 45 250 64 22 8 57 15 77 16 46 0 91 17 83 30 -6 10 -52 11 -110 3z"/> <path d="M4962 12900 c-63 -32 -127 -62 -143 -65 -16 -4 -31 -11 -34 -16 -4 -5 -16 -9 -28 -9 -13 0 -31 -6 -42 -14 -11 -7 -36 -17 -55 -21 -19 -4 -50 -20 -68 -36 -18 -16 -39 -29 -47 -29 -8 0 -43 -17 -77 -38 -35 -21 -74 -41 -88 -45 -14 -3 -40 -20 -58 -38 -19 -19 -38 -29 -47 -25 -10 3 -18 -1 -22 -12 -9 -22 -23 -32 -50 -32 -18 0 -23 -6 -23 -25 0 -20 -5 -25 -25 -25 -25 0 -65 -21 -93 -47 -7 -7 -17 -13 -21 -13 -4 0 -26 -18 -50 -40 -23 -22 -51 -40 -62 -40 -18 0 -27 -29 -13 -43 8 -7 54 14 54 25 0 5 11 13 24 18 13 5 39 22 58 39 49 43 138 101 154 101 8 0 24 11 36 25 12 14 28 25 37 25 8 0 22 6 30 14 17 15 89 57 186 107 33 17 69 39 80 49 11 10 31 21 45 25 14 4 39 18 57 31 17 13 45 24 61 24 16 0 37 9 47 20 10 11 30 20 45 20 15 0 41 7 56 15 16 8 37 15 46 15 9 0 19 4 22 9 8 13 74 46 121 61 56 18 72 32 48 41 -32 13 -45 9 -161 -51z"/> <path d="M8610 12828 c0 -12 67 -40 130 -55 14 -3 39 -17 56 -30 17 -12 36 -23 43 -23 11 0 99 -51 179 -102 15 -10 34 -21 42 -25 8 -4 43 -24 78 -45 34 -21 66 -38 71 -38 5 0 16 -6 23 -13 16 -15 134 -87 143 -87 7 0 72 -47 96 -70 9 -8 26 -22 39 -30 193 -130 569 -470 730 -660 30 -35 62 -72 70 -80 40 -43 137 -155 150 -174 8 -12 18 -25 22 -31 5 -5 31 -41 59 -80 28 -38 57 -73 64 -77 7 -5 28 -34 45 -65 18 -32 46 -74 61 -94 16 -20 29 -40 29 -44 0 -5 11 -23 25 -41 14 -18 25 -39 25 -46 0 -8 7 -23 15 -34 8 -10 24 -37 35 -59 29 -58 72 -134 100 -180 54 -87 166 -329 182 -391 6 -27 18 -56 25 -65 7 -8 13 -22 13 -31 0 -8 3 -18 6 -21 11 -11 53 -118 69 -177 9 -30 22 -68 30 -85 15 -33 63 -230 76 -310 4 -27 15 -79 23 -115 8 -36 18 -78 21 -95 27 -130 39 -202 45 -275 5 -47 13 -105 19 -130 6 -28 10 -229 11 -521 0 -404 -2 -481 -15 -505 -10 -19 -15 -58 -15 -115 0 -65 -4 -90 -15 -99 -11 -9 -15 -32 -15 -80 0 -48 -4 -71 -15 -80 -16 -14 -21 -90 -6 -90 6 0 13 21 17 48 3 26 10 52 14 57 5 6 11 37 15 70 3 33 10 69 15 80 11 25 31 134 36 200 3 28 7 250 10 495 6 454 2 524 -38 780 -5 36 -14 94 -18 129 -4 35 -12 66 -17 70 -6 3 -13 34 -16 69 -3 34 -10 69 -17 77 -7 8 -14 43 -17 77 -3 35 -12 75 -19 90 -8 15 -14 43 -14 63 0 20 -6 48 -14 63 -8 16 -22 57 -31 92 -16 61 -34 111 -56 152 -5 10 -9 27 -9 38 0 12 -10 40 -22 63 -43 84 -48 95 -48 119 0 12 -12 41 -25 63 -14 22 -25 50 -25 63 0 12 -9 30 -20 39 -11 10 -20 22 -20 27 0 5 -6 17 -13 25 -7 9 -19 34 -26 56 -8 22 -31 70 -52 107 -22 36 -39 71 -39 76 0 4 -11 19 -25 32 -14 14 -25 35 -25 50 0 15 -11 36 -25 50 -14 13 -25 29 -25 35 0 7 -9 22 -20 35 -11 13 -20 30 -20 39 0 9 -13 32 -30 51 -16 19 -29 41 -30 49 0 7 -13 29 -30 48 -16 18 -30 39 -30 44 0 6 -23 38 -51 70 -53 61 -79 96 -125 163 -15 22 -45 59 -68 84 -89 96 -142 154 -166 183 -14 16 -49 54 -77 83 -29 29 -53 58 -53 64 0 6 -12 18 -27 26 -16 8 -45 30 -65 50 -20 20 -41 36 -47 36 -5 0 -12 8 -15 18 -8 24 -70 88 -141 145 -104 83 -125 101 -172 145 -25 23 -50 42 -54 42 -11 0 -65 37 -121 83 -25 20 -49 37 -54 37 -5 0 -22 14 -37 30 -16 17 -35 30 -42 30 -7 0 -18 6 -24 14 -7 8 -27 18 -44 21 -18 4 -41 15 -52 24 -42 34 -85 61 -99 61 -8 0 -27 11 -42 25 -15 14 -31 25 -36 25 -6 0 -22 8 -36 19 -23 16 -78 47 -172 98 -14 7 -33 13 -42 13 -9 0 -19 4 -23 9 -3 5 -31 21 -61 35 -60 28 -114 34 -114 14z"/> <path d="M6672 12793 c-31 -6 -23 -26 14 -34 76 -17 144 -4 118 21 -11 10 -102 19 -132 13z"/> <path d="M6285 12778 c-22 -5 -83 -12 -135 -16 -75 -6 -95 -10 -95 -22 0 -12 12 -14 65 -12 98 5 143 11 154 22 6 6 52 10 103 10 76 0 93 3 93 15 0 12 -14 15 -72 14 -40 -1 -91 -5 -113 -11z"/> <path d="M6900 12782 c0 -4 71 -14 158 -20 86 -7 182 -17 212 -22 30 -5 104 -15 164 -22 66 -7 110 -17 113 -24 2 -7 23 -15 46 -19 23 -4 50 -9 60 -12 14 -4 18 0 15 13 -3 20 -34 31 -85 33 -18 1 -33 6 -33 11 0 6 -26 10 -59 10 -40 0 -63 5 -71 15 -9 11 -35 15 -104 15 -60 1 -100 6 -116 15 -18 10 -62 14 -162 15 -76 0 -138 -4 -138 -8z"/> <path d="M5905 12716 c-11 -9 -39 -16 -63 -16 -31 0 -42 -4 -39 -12 9 -26 171 -1 179 27 5 16 -55 17 -77 1z"/> <path d="M5700 12671 c-48 -8 -49 -37 -1 -33 45 5 81 19 81 32 0 11 -24 11 -80 1z"/> <path d="M7704 12668 c-9 -14 0 -19 48 -25 24 -3 54 -11 68 -18 14 -7 66 -20 117 -30 70 -13 92 -22 96 -35 4 -15 20 -20 82 -25 47 -5 78 -12 81 -20 3 -7 33 -23 67 -35 34 -12 70 -26 79 -31 10 -5 24 -9 32 -9 8 0 66 -27 130 -60 64 -33 125 -60 136 -60 11 0 29 -9 40 -20 11 -11 29 -20 40 -20 11 0 27 -11 36 -25 11 -17 25 -25 45 -25 16 0 39 -11 56 -26 15 -14 51 -37 78 -50 63 -31 126 -68 145 -87 8 -8 30 -22 48 -31 18 -9 36 -24 39 -32 3 -7 11 -14 18 -14 7 0 29 -13 50 -30 21 -16 43 -30 48 -30 6 0 31 -22 56 -48 26 -28 62 -54 84 -61 20 -7 37 -16 37 -21 0 -13 81 -90 96 -90 7 0 19 -10 25 -22 15 -28 32 -45 87 -82 35 -24 43 -35 39 -53 -3 -18 0 -23 16 -23 13 0 50 -29 94 -75 40 -41 78 -75 83 -75 6 0 10 -8 10 -18 0 -27 27 -60 52 -64 14 -2 31 -18 45 -44 13 -22 49 -71 82 -107 32 -37 65 -80 73 -95 28 -54 60 -102 69 -102 5 0 16 -15 25 -32 9 -18 23 -40 31 -48 28 -29 79 -114 191 -315 9 -16 20 -32 24 -35 21 -16 78 -116 78 -136 0 -14 6 -35 14 -47 8 -12 17 -38 21 -57 4 -19 20 -50 34 -70 26 -33 71 -133 71 -156 0 -6 8 -22 19 -35 10 -13 21 -37 24 -54 11 -60 26 -108 35 -114 5 -3 12 -27 16 -52 4 -26 22 -91 41 -145 19 -55 35 -114 35 -132 0 -17 9 -48 19 -68 11 -21 22 -68 26 -112 4 -43 16 -104 26 -137 17 -55 24 -112 49 -378 12 -125 17 -580 8 -720 -9 -147 -29 -310 -38 -322 -4 -5 -13 -42 -19 -81 -6 -39 -17 -90 -26 -113 -8 -24 -15 -60 -15 -81 0 -21 -7 -43 -15 -50 -8 -7 -15 -21 -15 -31 0 -10 -6 -36 -14 -56 -8 -21 -20 -71 -27 -111 -7 -40 -16 -75 -21 -78 -4 -3 -8 -16 -8 -30 0 -30 -47 -134 -61 -134 -5 0 -9 -13 -9 -30 0 -16 -8 -44 -18 -62 -10 -18 -28 -62 -41 -98 -13 -36 -29 -74 -36 -85 -7 -11 -16 -36 -20 -55 -4 -18 -14 -40 -21 -48 -8 -7 -14 -21 -14 -31 0 -10 -9 -26 -20 -36 -11 -10 -20 -23 -20 -29 0 -6 -20 -42 -44 -79 -24 -38 -47 -84 -51 -103 -3 -19 -13 -38 -21 -41 -7 -3 -14 -13 -14 -24 0 -10 -11 -30 -25 -45 -14 -15 -25 -35 -25 -46 0 -10 -11 -24 -25 -30 -14 -6 -25 -18 -25 -26 0 -8 -16 -30 -35 -49 -19 -19 -35 -43 -35 -54 0 -12 -13 -33 -30 -47 -16 -15 -30 -32 -30 -39 0 -14 0 -14 -95 -121 -42 -48 -65 -82 -65 -98 0 -13 -4 -24 -9 -24 -15 0 -121 -106 -121 -121 0 -9 -15 -26 -32 -39 -18 -13 -44 -34 -58 -47 -84 -77 -120 -113 -120 -120 0 -18 -111 -113 -131 -113 -8 0 -20 -14 -28 -31 -7 -17 -24 -34 -37 -39 -12 -5 -28 -18 -34 -30 -6 -11 -19 -20 -29 -20 -18 0 -54 -30 -92 -76 -21 -24 -60 -54 -72 -54 -5 0 -25 -14 -44 -30 -18 -17 -40 -30 -48 -30 -7 0 -22 -11 -33 -25 -11 -14 -26 -25 -34 -25 -8 0 -23 -9 -32 -19 -10 -11 -31 -25 -47 -31 -16 -7 -29 -19 -29 -26 0 -8 -10 -14 -25 -14 -14 0 -34 -11 -47 -25 -15 -17 -32 -25 -55 -25 -26 0 -33 -4 -33 -20 0 -14 -9 -21 -37 -26 -21 -4 -51 -17 -66 -30 -16 -13 -35 -24 -43 -24 -8 0 -14 -5 -14 -10 0 -6 -8 -13 -17 -17 -41 -14 -109 -46 -123 -58 -8 -6 -36 -18 -63 -25 -26 -7 -50 -17 -53 -21 -13 -21 -94 -53 -149 -58 -62 -6 -78 -22 -44 -44 18 -11 123 16 135 34 3 5 13 9 23 9 10 0 30 9 44 20 14 11 32 20 41 20 9 0 34 11 56 25 22 14 47 25 55 25 9 0 35 13 58 28 23 15 67 38 97 51 30 13 66 30 80 38 14 8 41 21 60 30 19 8 39 21 43 29 4 8 14 14 21 14 7 0 25 11 40 25 15 14 29 25 32 25 3 0 17 8 32 19 15 10 56 37 92 61 36 23 70 47 75 54 6 6 26 19 46 29 39 20 94 63 203 161 38 33 90 77 117 97 68 52 382 372 459 470 36 45 75 93 87 108 63 76 113 140 113 147 0 4 19 32 42 63 42 55 66 93 91 141 6 13 23 36 36 50 21 22 33 42 88 145 9 17 23 41 30 55 8 14 21 41 30 60 8 19 18 37 22 40 9 8 51 96 51 109 0 6 4 11 9 11 4 0 19 28 31 63 12 34 29 71 36 82 8 11 14 29 14 41 0 12 11 37 24 57 13 19 27 49 31 67 4 17 13 43 21 58 8 15 14 37 14 50 0 12 4 22 10 22 5 0 12 17 15 38 4 20 13 51 21 69 8 17 14 44 14 60 0 16 4 33 9 38 15 17 41 113 41 151 0 21 6 45 14 53 14 17 30 85 47 206 5 38 14 74 19 79 6 6 10 30 11 56 0 25 5 68 10 95 14 69 30 326 30 465 0 206 -13 525 -22 536 -5 6 -12 56 -16 110 -3 54 -12 110 -20 124 -7 14 -13 48 -13 75 0 28 -7 59 -15 69 -9 12 -15 42 -15 72 0 33 -5 58 -15 68 -9 9 -15 33 -15 64 0 28 -6 63 -14 79 -20 41 -44 118 -61 197 -7 38 -18 72 -23 75 -6 3 -13 27 -17 54 -4 26 -11 50 -16 53 -5 3 -9 12 -9 20 0 8 -13 44 -30 79 -16 35 -30 69 -30 76 0 6 -13 34 -30 61 -16 26 -30 51 -30 54 0 4 -16 40 -35 81 -19 41 -35 81 -35 88 0 7 -7 18 -15 25 -8 7 -15 18 -15 25 0 7 -6 17 -12 23 -7 6 -22 33 -33 61 -11 28 -23 51 -27 51 -4 0 -8 6 -8 13 0 7 -12 29 -26 48 -14 19 -30 43 -34 54 -5 11 -32 52 -60 90 -27 39 -55 80 -60 93 -6 13 -17 30 -25 38 -8 8 -31 41 -52 72 -60 92 -172 230 -298 370 -59 65 -181 184 -201 195 -8 4 -21 21 -29 37 -9 17 -22 30 -30 30 -8 0 -15 4 -15 10 0 5 -30 34 -67 63 -76 61 -102 83 -153 128 -40 35 -212 164 -251 188 -14 9 -39 25 -55 35 -16 11 -54 35 -84 54 -30 19 -85 55 -121 79 -37 23 -71 43 -77 43 -5 0 -15 7 -22 15 -7 8 -22 15 -35 15 -12 0 -30 9 -40 20 -10 11 -24 20 -30 20 -7 0 -39 13 -71 29 -150 75 -250 121 -262 121 -7 0 -38 13 -70 29 -31 16 -79 36 -107 44 -27 9 -81 27 -120 41 -38 14 -82 26 -97 26 -15 0 -29 4 -32 9 -3 4 -24 11 -48 15 -23 4 -56 13 -72 21 -38 16 -135 26 -142 13z"/> <path d="M5544 12625 c-10 -8 -32 -15 -49 -15 -16 -1 -48 -8 -70 -16 -22 -9 -66 -22 -98 -29 -32 -8 -82 -24 -110 -38 -114 -54 -145 -67 -154 -67 -6 0 -16 -7 -23 -15 -7 -8 -23 -15 -36 -15 -12 0 -25 -4 -28 -9 -3 -4 -27 -16 -53 -26 -26 -10 -55 -23 -63 -30 -8 -7 -30 -17 -49 -24 -19 -6 -42 -17 -50 -25 -9 -7 -31 -18 -49 -24 -17 -6 -56 -26 -85 -44 -69 -44 -105 -64 -147 -84 -19 -9 -37 -19 -40 -23 -9 -12 -94 -71 -102 -71 -5 0 -14 -5 -21 -10 -7 -6 -52 -39 -102 -75 -105 -75 -133 -96 -194 -150 -25 -23 -73 -60 -105 -84 -98 -73 -481 -465 -498 -510 -3 -10 -17 -27 -30 -37 -13 -11 -32 -32 -42 -49 -11 -16 -39 -53 -63 -81 -23 -28 -43 -54 -43 -58 0 -4 -18 -29 -40 -57 -22 -28 -40 -54 -40 -58 0 -5 -9 -18 -20 -31 -11 -13 -20 -31 -20 -41 0 -10 -6 -22 -14 -26 -19 -10 -72 -83 -80 -110 -4 -12 -13 -24 -21 -27 -8 -3 -15 -12 -15 -21 0 -8 -11 -33 -25 -55 -14 -22 -25 -44 -25 -49 0 -9 -44 -91 -70 -131 -6 -8 -15 -26 -21 -40 -5 -14 -23 -52 -40 -86 -16 -33 -29 -68 -29 -77 0 -9 -4 -17 -9 -17 -5 0 -19 -27 -31 -60 -12 -33 -27 -63 -31 -66 -5 -3 -9 -18 -9 -35 0 -22 5 -29 19 -29 14 0 20 10 25 39 3 21 12 44 21 51 8 6 17 28 21 49 4 20 14 45 24 56 10 11 20 34 24 50 4 17 19 48 34 70 26 39 55 96 86 165 9 19 20 42 25 50 5 8 19 35 32 60 38 79 57 112 78 134 11 11 25 32 31 46 17 39 53 94 79 121 13 13 29 38 36 54 7 17 23 39 35 50 13 11 40 46 61 77 22 31 46 61 54 66 9 4 23 22 33 39 31 55 85 123 104 129 10 3 18 10 18 17 0 6 14 25 31 41 17 17 94 95 171 174 129 131 216 208 273 239 12 7 39 31 59 53 20 22 40 40 46 40 5 0 24 12 42 28 18 15 48 35 66 45 18 10 45 30 60 44 40 39 174 123 195 123 9 0 22 11 28 24 7 15 23 26 42 30 16 3 35 10 41 15 21 18 128 71 142 71 7 0 18 9 24 20 6 11 26 22 45 26 20 3 40 14 45 24 5 10 23 21 39 25 16 3 35 13 42 21 6 8 21 14 32 14 11 0 28 6 36 13 9 7 34 19 56 26 42 14 126 48 213 87 29 13 57 24 63 24 6 0 20 5 31 11 12 6 41 13 65 14 23 2 55 11 71 21 15 11 45 23 66 29 22 5 41 16 44 23 5 17 -40 15 -64 -3z"/> <path d="M6712 12624 c-33 -15 11 -24 121 -24 92 0 118 3 109 12 -12 12 -207 22 -230 12z"/> <path d="M6383 12607 c-3 -5 -3 -10 -1 -12 8 -8 178 8 178 17 0 11 -170 6 -177 -5z"/> <path d="M7022 12612 c-27 -18 52 -33 220 -43 92 -5 193 -16 225 -24 72 -19 83 -19 83 0 0 8 9 15 19 15 26 0 37 18 15 27 -10 4 -21 0 -28 -9 -20 -27 -70 -31 -117 -9 -32 14 -84 22 -194 30 -82 6 -163 13 -180 16 -16 3 -36 2 -43 -3z"/> <path d="M3798 12600 c-9 -6 -85 -12 -168 -15 -101 -3 -162 -9 -183 -19 -18 -8 -50 -20 -72 -27 -68 -21 -176 -76 -188 -96 -4 -7 -15 -13 -23 -13 -18 0 -57 -24 -102 -62 -18 -15 -38 -28 -44 -28 -16 0 -129 -117 -165 -172 -17 -26 -40 -59 -50 -75 -95 -140 -103 -156 -103 -193 0 -22 -5 -40 -13 -43 -23 -9 -49 -142 -53 -271 -2 -66 -8 -146 -14 -176 -5 -30 -12 -80 -15 -111 -2 -31 -12 -69 -20 -85 -8 -16 -15 -38 -15 -49 0 -26 -21 -84 -42 -115 -9 -14 -41 -68 -71 -120 -31 -52 -69 -111 -86 -130 -97 -110 -194 -199 -260 -238 -25 -14 -49 -32 -54 -39 -4 -6 -34 -29 -67 -49 -33 -20 -60 -40 -60 -44 0 -4 -11 -10 -23 -14 -68 -17 -327 -380 -327 -458 0 -10 -6 -31 -14 -46 -24 -48 -43 -246 -38 -409 4 -144 13 -189 26 -125 3 15 5 112 5 215 -1 127 2 192 10 200 6 6 11 25 11 42 1 16 7 41 15 55 8 14 14 34 15 46 0 12 11 37 24 57 13 19 27 46 31 58 4 13 20 41 36 61 16 20 29 44 29 52 0 8 18 34 40 58 22 24 40 50 40 58 0 16 63 72 93 83 9 3 17 13 17 21 0 7 24 25 54 40 29 14 67 40 84 56 18 17 38 30 45 30 7 0 20 9 30 20 9 11 42 36 72 56 31 19 65 49 76 67 12 18 41 48 66 67 24 19 46 45 49 57 3 12 17 29 30 38 13 8 33 37 45 63 12 26 34 66 50 90 16 24 29 47 29 52 0 5 8 24 19 42 10 18 24 56 30 83 7 28 17 66 22 85 15 54 29 160 44 339 7 90 18 168 24 174 6 6 11 30 11 54 0 31 5 45 19 52 11 6 21 26 25 52 4 23 20 59 36 79 17 21 30 48 30 61 0 16 13 34 36 53 20 16 42 43 49 60 8 17 22 38 32 47 10 9 32 32 48 50 17 19 51 45 75 58 25 13 52 33 61 44 9 11 37 31 62 46 25 14 66 38 92 53 25 15 62 30 81 34 20 4 43 14 52 24 9 10 35 20 57 23 22 2 67 9 100 15 33 6 111 13 173 16 107 4 150 16 136 37 -7 12 -45 11 -66 -1z"/> <path d="M6228 12593 c-53 -8 -27 -23 40 -23 80 0 112 14 55 23 -39 7 -49 7 -95 0z"/> <path d="M6140 12580 c0 -5 7 -10 15 -10 8 0 15 5 15 10 0 6 -7 10 -15 10 -8 0 -15 -4 -15 -10z"/> <path d="M5941 12562 c-14 -4 -27 -14 -29 -21 -4 -12 9 -13 74 -8 78 7 129 27 67 27 -17 0 -43 2 -59 4 -16 3 -40 2 -53 -2z"/> <path d="M5827 12543 c-16 -15 -6 -34 15 -31 29 4 38 38 10 38 -10 0 -22 -3 -25 -7z"/> <path d="M7615 12520 c3 -5 17 -10 31 -10 13 0 24 5 24 10 0 6 -14 10 -31 10 -17 0 -28 -4 -24 -10z"/> <path d="M5695 12500 c-22 -10 -55 -19 -72 -19 -22 -1 -33 -6 -33 -16 0 -23 43 -23 70 -1 8 7 30 13 49 14 37 3 71 18 71 32 0 15 -41 10 -85 -10z"/> <path d="M7710 12491 c0 -9 129 -21 143 -14 4 2 5 9 2 14 -8 12 -145 12 -145 0z"/> <path d="M7880 12467 c0 -15 72 -47 108 -47 54 0 0 42 -71 55 -29 6 -37 4 -37 -8z"/> <path d="M5484 12445 l-29 -25 50 2 c42 3 50 6 50 23 0 30 -38 30 -71 0z"/> <path d="M8032 12414 c2 -10 42 -30 113 -56 61 -22 117 -46 126 -54 8 -8 24 -14 35 -14 10 0 46 -13 79 -29 33 -16 76 -37 95 -46 19 -9 46 -23 60 -31 14 -7 37 -14 52 -14 17 0 31 -8 38 -19 10 -19 36 -37 89 -61 27 -12 45 -2 36 21 -5 14 -92 59 -113 59 -6 0 -15 6 -19 13 -4 7 -29 18 -55 25 -26 6 -72 28 -102 47 -30 19 -62 35 -71 35 -8 0 -24 9 -35 20 -11 11 -29 20 -39 20 -11 0 -23 5 -26 10 -3 6 -21 10 -38 10 -20 0 -39 8 -50 20 -9 11 -27 20 -39 20 -12 0 -29 6 -37 14 -9 7 -35 16 -59 20 -37 5 -43 4 -40 -10z"/> <path d="M5351 12395 c-18 -8 -43 -15 -55 -15 -12 0 -32 -7 -44 -15 -19 -14 -113 -52 -182 -75 -14 -4 -59 -28 -100 -52 -41 -25 -88 -48 -105 -52 -16 -4 -41 -15 -55 -24 -14 -9 -56 -31 -95 -50 -38 -18 -86 -46 -105 -60 -19 -15 -53 -38 -76 -52 -74 -44 -124 -80 -124 -89 0 -5 -14 -14 -31 -20 -17 -6 -33 -19 -36 -28 -2 -10 -26 -28 -52 -40 -41 -19 -82 -50 -152 -115 -11 -10 -23 -18 -29 -18 -5 0 -17 -11 -25 -24 -9 -13 -30 -30 -48 -37 -33 -14 -70 -47 -235 -209 -130 -128 -199 -204 -245 -271 -20 -31 -48 -66 -62 -79 -14 -13 -25 -28 -25 -34 -1 -15 -42 -61 -61 -68 -9 -4 -19 -19 -22 -35 -3 -15 -22 -46 -42 -67 -19 -22 -35 -45 -35 -51 0 -6 -11 -22 -24 -35 -14 -12 -28 -35 -31 -51 -4 -16 -10 -29 -14 -29 -8 0 -98 -134 -124 -186 -9 -17 -22 -36 -30 -43 -9 -6 -27 -49 -42 -94 -15 -45 -34 -89 -42 -99 -8 -9 -13 -30 -11 -50 l3 -33 23 50 c13 28 27 57 32 65 4 8 27 51 50 95 24 44 60 106 80 137 21 31 41 66 45 77 3 12 10 21 15 21 5 0 12 9 15 21 4 11 36 62 71 114 35 52 64 98 64 103 0 5 19 29 41 53 23 24 53 62 67 84 29 46 51 73 136 169 148 168 218 239 321 328 61 52 116 102 124 111 7 10 18 17 23 17 6 0 22 12 37 26 14 14 56 47 92 73 37 26 75 55 84 65 10 10 34 29 54 42 20 13 52 35 71 49 60 43 109 75 115 75 4 0 21 11 39 25 18 14 37 25 43 25 5 0 24 11 43 25 18 13 70 43 116 65 45 23 85 48 88 56 3 8 14 14 25 14 11 0 42 11 69 25 28 14 57 25 65 25 8 0 25 8 38 18 30 22 75 42 95 42 9 0 44 13 77 29 34 15 73 31 87 35 32 10 110 46 110 52 0 10 -68 2 -99 -11z"/> <path d="M3823 12260 c-17 -10 -37 -28 -43 -39 -6 -11 -21 -26 -34 -33 -13 -7 -50 -37 -81 -67 -32 -29 -71 -58 -87 -63 -16 -6 -35 -23 -43 -38 -8 -16 -25 -30 -37 -32 -15 -2 -24 -11 -26 -25 -2 -12 -12 -25 -23 -28 -10 -4 -26 -19 -34 -35 -8 -16 -24 -31 -35 -35 -13 -4 -20 -15 -20 -31 0 -19 -8 -28 -30 -35 -16 -6 -32 -19 -35 -30 -4 -10 -11 -19 -16 -19 -10 0 -56 -44 -80 -77 -8 -10 -26 -26 -41 -36 -15 -9 -43 -41 -61 -70 -19 -28 -48 -68 -64 -87 -87 -100 -111 -130 -123 -161 -15 -35 -15 -36 -82 -114 -47 -54 -63 -78 -78 -112 -5 -13 -14 -23 -20 -23 -6 0 -18 -16 -25 -35 -8 -19 -24 -39 -35 -45 -15 -8 -20 -21 -20 -49 0 -25 -7 -44 -20 -56 -11 -10 -20 -26 -20 -36 0 -10 -8 -24 -19 -31 -10 -7 -22 -24 -26 -38 -4 -14 -18 -36 -30 -50 -13 -14 -26 -40 -30 -57 -3 -18 -11 -35 -16 -38 -5 -4 -18 -26 -29 -50 -11 -24 -24 -47 -30 -50 -5 -3 -10 -19 -10 -34 0 -16 -7 -34 -15 -41 -8 -7 -15 -18 -15 -25 0 -6 -9 -22 -20 -35 -11 -13 -20 -31 -20 -40 0 -10 -11 -42 -24 -71 -12 -30 -26 -67 -30 -84 -4 -16 -13 -37 -20 -45 -14 -17 -36 -87 -36 -115 0 -9 -13 -37 -30 -62 -19 -28 -30 -57 -30 -79 0 -19 -6 -47 -14 -62 -13 -24 -12 -30 4 -50 17 -21 39 -15 26 7 -4 5 0 33 8 63 9 29 18 64 22 78 4 14 12 32 19 40 7 8 16 34 20 57 4 24 10 45 15 48 5 3 18 34 30 70 12 36 26 67 31 70 5 4 9 19 9 34 0 15 9 38 20 51 11 13 20 30 20 38 0 8 11 35 24 61 42 80 96 197 96 208 0 6 4 13 9 15 5 2 33 48 61 103 28 55 58 107 65 115 7 8 24 35 38 60 14 25 40 73 59 107 18 34 46 77 61 95 49 59 122 159 152 207 19 31 70 97 136 176 36 44 71 90 78 103 6 12 17 22 24 22 7 0 23 14 37 32 30 39 102 108 112 108 5 0 8 9 8 20 0 12 10 25 23 31 12 5 33 26 46 45 13 18 28 34 33 34 5 0 41 32 80 70 39 39 75 70 81 70 5 0 21 11 35 25 113 103 143 129 184 157 71 49 63 92 -9 48z"/> <path d="M8760 12072 c0 -4 35 -28 78 -52 42 -25 84 -49 93 -55 9 -5 35 -20 58 -33 46 -25 192 -134 212 -158 6 -8 17 -14 25 -14 7 0 18 -9 24 -20 6 -11 17 -20 25 -20 8 0 15 -4 15 -10 0 -5 11 -12 25 -16 13 -3 27 -15 30 -25 4 -11 17 -25 29 -32 30 -15 178 -151 265 -241 177 -183 262 -276 291 -314 36 -49 87 -115 102 -132 44 -53 168 -231 168 -242 0 -3 20 -36 45 -74 25 -37 45 -73 45 -78 0 -5 11 -21 24 -35 13 -15 34 -52 46 -83 13 -32 27 -58 31 -58 4 0 12 -15 19 -34 6 -18 20 -42 30 -51 11 -10 20 -27 20 -38 0 -10 9 -36 19 -56 11 -20 34 -70 51 -111 17 -41 35 -83 40 -92 6 -10 10 -26 10 -35 0 -10 7 -31 16 -48 9 -16 24 -57 35 -90 11 -33 25 -68 30 -79 15 -27 36 -103 44 -158 3 -26 11 -51 17 -54 7 -5 9 19 6 78 -3 64 -10 93 -26 120 -12 19 -22 46 -22 59 0 13 -9 43 -20 67 -10 23 -22 59 -26 80 -4 20 -12 48 -20 62 -7 14 -21 45 -32 70 -11 25 -31 70 -45 100 -14 30 -37 82 -51 115 -15 32 -33 66 -41 75 -7 8 -28 42 -46 75 -18 33 -38 64 -46 68 -7 4 -13 19 -13 33 0 14 -11 40 -25 58 -14 18 -25 40 -25 49 0 9 -9 21 -20 27 -11 6 -23 22 -26 36 -4 14 -22 45 -40 69 -18 24 -40 57 -48 73 -8 16 -22 32 -31 35 -8 4 -15 14 -15 23 0 9 -10 27 -22 39 -49 49 -67 73 -73 98 -4 15 -10 27 -14 27 -12 0 -101 87 -101 99 0 6 -9 15 -19 21 -11 5 -22 19 -26 29 -3 11 -15 23 -25 26 -11 4 -23 17 -26 31 -3 13 -10 24 -14 24 -15 0 -91 79 -89 92 3 29 -2 35 -26 30 -16 -3 -25 0 -25 8 0 16 -60 75 -86 84 -10 4 -39 31 -64 61 -25 30 -52 55 -60 55 -8 0 -28 16 -43 35 -15 19 -33 35 -38 35 -6 0 -20 11 -31 25 -11 14 -35 32 -53 39 -18 8 -38 23 -44 35 -6 11 -55 49 -109 84 -53 35 -103 71 -110 80 -7 9 -26 18 -41 22 -16 3 -41 19 -56 35 -16 17 -39 30 -51 30 -12 0 -27 7 -34 15 -13 15 -70 21 -70 7z"/> <path d="M10849 11455 c-1 -5 0 -62 1 -125 2 -90 6 -123 21 -152 10 -20 19 -44 19 -51 0 -14 69 -164 92 -202 71 -114 102 -155 118 -160 11 -4 20 -13 20 -21 0 -15 88 -114 102 -114 3 0 20 -12 36 -27 45 -43 82 -71 151 -116 115 -75 129 -86 135 -105 4 -10 19 -25 35 -33 31 -15 171 -166 171 -184 0 -6 13 -26 29 -45 50 -61 121 -237 121 -299 0 -15 5 -32 11 -38 7 -7 11 -81 12 -203 2 -168 0 -195 -15 -219 -20 -29 -25 -105 -7 -99 6 2 19 28 29 58 42 128 26 530 -24 602 -9 12 -16 37 -16 55 0 17 -4 34 -9 37 -5 3 -12 21 -15 40 -4 19 -10 36 -14 38 -5 2 -26 30 -47 63 -21 33 -57 81 -79 106 -23 26 -50 57 -61 70 -31 36 -134 122 -185 154 -43 27 -120 82 -149 106 -31 27 -102 79 -106 79 -12 0 -185 213 -185 228 0 5 -8 20 -19 33 -10 13 -22 35 -26 48 -4 14 -16 32 -27 41 -11 9 -24 37 -29 65 -5 26 -16 56 -24 65 -8 9 -15 34 -15 56 -1 21 -7 50 -15 64 -8 15 -14 54 -15 95 0 39 -5 77 -10 85 -5 8 -10 11 -11 5z"/> <path d="M3710 10650 c-11 -21 -107 -145 -177 -229 l-37 -44 -4 -124 c-4 -99 -2 -123 9 -125 8 -1 63 -2 122 -2 l109 -1 -2 -465 c0 -340 2 -474 11 -499 12 -34 11 -36 -32 -73 -24 -21 -48 -38 -54 -38 -5 -1 -22 -11 -37 -23 -24 -20 -26 -28 -24 -82 2 -33 4 -63 5 -68 0 -4 126 -6 279 -5 l277 3 3 66 3 66 -56 37 c-30 21 -67 48 -81 61 -23 21 -24 26 -12 47 10 18 13 123 13 498 l0 475 398 3 397 2 0 -102 c-1 -75 -5 -108 -15 -122 -17 -22 -20 -92 -5 -101 6 -3 10 -12 10 -20 0 -21 -59 -105 -74 -105 -23 0 -80 -32 -114 -64 -59 -55 -92 -132 -92 -219 0 -90 24 -150 82 -202 58 -52 90 -69 178 -97 143 -44 184 -63 221 -98 44 -42 51 -84 23 -144 -35 -73 -176 -101 -272 -54 -41 21 -152 130 -152 150 0 4 -16 30 -36 57 -49 69 -68 61 -58 -23 3 -33 8 -101 9 -151 2 -49 4 -92 4 -94 1 -2 9 3 19 11 22 20 59 31 66 20 3 -5 31 -15 63 -22 32 -7 84 -21 115 -31 74 -24 105 -24 118 1 6 11 21 20 33 20 25 0 83 30 145 75 104 76 136 286 58 387 -37 49 -132 117 -163 118 -12 0 -24 4 -27 9 -3 5 -23 12 -43 16 -43 8 -147 41 -178 57 -46 24 -64 60 -65 125 0 62 0 63 42 93 43 32 63 36 88 20 13 -9 12 -13 -5 -26 -19 -16 -18 -16 15 -9 95 18 106 18 148 -9 44 -27 82 -73 117 -139 14 -25 31 -43 44 -45 12 -2 26 -12 31 -23 6 -10 18 -19 26 -19 12 0 15 6 10 26 -4 15 -10 40 -13 58 -3 17 -11 36 -18 41 -12 10 -20 43 -31 133 -6 41 -16 53 -29 32 -10 -17 -83 -11 -133 10 -28 12 -65 19 -91 17 -25 -1 -46 3 -48 9 -2 6 17 36 42 66 37 45 45 62 45 95 0 24 -6 46 -15 53 -12 10 -15 36 -15 118 l0 105 69 -5 c38 -3 73 -2 78 1 5 3 9 51 9 105 l-1 99 -30 19 c-16 10 -39 18 -50 18 -18 0 -61 12 -150 42 -16 5 -47 14 -68 19 -21 5 -45 13 -55 18 -18 9 -78 27 -202 61 -96 27 -163 46 -223 65 -26 8 -56 15 -67 15 -10 0 -21 4 -24 9 -4 5 -25 12 -48 16 -23 4 -49 11 -58 16 -39 20 -115 33 -222 36 -111 4 -117 3 -128 -17z m166 -38 c11 -8 85 -215 87 -247 2 -19 -4 -20 -93 -20 l-95 0 -2 125 c-2 69 -1 131 2 138 5 13 83 17 101 4z m242 -58 c86 -25 180 -52 207 -60 28 -8 72 -21 98 -29 26 -8 54 -15 62 -15 9 0 23 -4 33 -9 24 -12 97 -31 162 -41 71 -12 136 -38 123 -51 -5 -5 -164 -8 -398 -7 -381 3 -390 3 -393 23 -5 34 -34 127 -48 154 -14 26 -19 81 -8 81 3 0 76 -21 162 -46z m-388 -103 c0 -81 -3 -100 -16 -105 -24 -9 -142 -7 -148 3 -8 12 133 201 150 201 11 0 14 -20 14 -99z m-67 -151 c65 0 68 -1 65 -22 -3 -22 -8 -23 -96 -26 -76 -2 -93 0 -98 13 -9 22 16 47 40 41 12 -3 52 -6 89 -6z m471 0 c20 -7 26 -16 26 -40 0 -43 -25 -49 -61 -14 -33 32 -37 50 -11 57 9 3 18 5 19 6 1 0 13 -3 27 -9z m120 4 c24 -9 19 -32 -10 -59 -38 -35 -54 -32 -54 10 0 34 4 38 47 54 1 1 8 -2 17 -5z m214 0 c17 -5 22 -14 22 -40 0 -41 -15 -51 -42 -28 -32 30 -42 55 -27 65 17 10 18 10 47 3z m139 -10 c7 -19 -43 -74 -68 -74 -37 0 -28 70 11 81 40 11 50 10 57 -7z m222 2 c18 -21 10 -70 -11 -74 -10 -2 -29 9 -43 24 -38 41 -33 64 15 64 15 0 33 -6 39 -14z m119 -9 c4 -19 -36 -76 -55 -76 -17 -1 -26 34 -18 70 6 27 10 30 38 27 21 -2 33 -9 35 -21z m-970 -9 c-3 -22 -8 -23 -97 -26 -96 -3 -118 4 -108 32 5 13 25 16 107 16 99 0 101 0 98 -22z m462 -91 c0 -24 -52 -32 -67 -11 -16 22 -17 56 -2 71 9 9 19 5 40 -17 16 -16 29 -35 29 -43z m225 32 c0 -27 -5 -36 -28 -47 -60 -29 -78 15 -26 61 39 34 54 30 54 -14z m-587 12 c29 -25 29 -57 0 -64 -30 -8 -68 18 -68 47 0 41 29 48 68 17z m240 -17 c4 -38 -18 -59 -53 -50 -31 8 -32 25 -2 59 29 34 51 30 55 -9z m443 7 c35 -36 36 -49 5 -57 -36 -9 -66 12 -66 45 0 50 19 54 61 12z m239 -4 c0 -31 -18 -47 -52 -47 -33 0 -35 9 -7 44 26 33 59 35 59 3z m-1263 -13 c2 -7 -3 -19 -12 -27 -13 -13 -31 -15 -98 -10 -88 6 -103 12 -94 38 6 13 22 15 104 13 60 -2 98 -7 100 -14z m238 -14 c0 -25 0 -25 -100 -25 l-100 0 -3 28 -3 28 103 -3 c102 -3 103 -3 103 -28z m3 -107 c-4 -58 -13 -60 -79 -13 -67 48 -64 60 17 60 l65 0 -3 -47z m-132 -19 c45 -30 53 -40 48 -59 -5 -20 0 -24 38 -36 40 -13 43 -17 46 -53 5 -54 -9 -64 -50 -35 -51 36 -63 51 -63 78 0 23 -5 26 -40 29 -22 2 -43 9 -47 15 -10 15 -10 81 -1 90 10 10 10 10 69 -29z m24 -181 c27 -20 46 -41 41 -46 -4 -4 -37 -7 -72 -5 l-64 3 -3 43 c-3 39 -2 42 23 42 14 0 48 -17 75 -37z m91 -93 c14 -8 19 -21 19 -50 0 -21 -4 -42 -10 -45 -5 -3 -27 6 -47 20 -21 14 -43 25 -50 25 -20 0 -16 48 5 53 31 8 63 7 83 -3z m-136 -51 c17 -11 38 -22 48 -25 10 -4 17 -16 17 -30 0 -22 -4 -24 -48 -24 -56 0 -72 12 -72 55 0 50 9 54 55 24z m157 -130 c2 -6 2 -26 0 -45 -3 -25 -9 -34 -23 -34 -24 0 -120 70 -113 82 8 12 132 10 136 -3z m-140 -52 c58 -44 56 -61 -6 -65 -55 -4 -66 5 -66 54 0 54 13 56 72 11z m130 -103 c11 -7 10 -92 -2 -99 -5 -3 -32 9 -60 27 -41 27 -50 38 -50 62 l0 29 52 -7 c28 -4 55 -9 60 -12z m-117 -76 c24 -18 43 -37 41 -43 -1 -5 -29 -10 -62 -10 l-59 0 -3 33 c-7 72 8 75 83 20z m123 -137 c5 -65 -1 -75 -35 -57 -16 8 -45 31 -66 51 -47 46 -38 56 43 53 l55 -3 3 -44z m-130 -21 c28 -14 56 -36 64 -50 7 -14 20 -30 28 -37 12 -10 2 -12 -55 -13 -110 0 -115 3 -115 64 0 51 6 69 21 64 4 -2 29 -14 57 -28z m997 19 c4 -5 19 -15 33 -21 19 -8 22 -12 11 -15 -16 -4 -109 32 -109 42 0 10 59 5 65 -6z"/> <path d="M2953 10188 c-5 -7 -17 -33 -25 -58 -25 -72 -40 -112 -60 -156 -10 -22 -18 -45 -18 -51 0 -6 -8 -21 -18 -34 -18 -24 -46 -106 -58 -168 -3 -18 -14 -52 -24 -74 -19 -42 -17 -67 5 -67 14 0 25 21 25 48 0 19 45 145 66 184 8 14 14 35 14 46 0 11 6 25 14 31 8 7 17 27 20 46 4 19 13 47 21 62 8 15 15 33 15 39 0 6 11 31 24 55 14 24 26 57 28 73 3 31 -13 45 -29 24z"/> <path d="M6765 9990 c-3 -11 -13 -20 -21 -20 -8 0 -17 -7 -21 -15 -3 -9 -18 -22 -34 -31 -28 -14 -41 -54 -19 -54 21 0 8 -28 -31 -70 -37 -39 -41 -47 -36 -82 4 -32 2 -38 -14 -38 -10 0 -19 -4 -19 -10 0 -5 -11 -20 -25 -34 -30 -30 -32 -46 -5 -46 23 0 25 -17 5 -44 -8 -11 -15 -26 -15 -34 0 -8 -13 -31 -30 -52 -16 -21 -30 -48 -30 -61 0 -12 -7 -30 -15 -39 -10 -11 -17 -45 -20 -100 l-4 -84 35 -32 c76 -72 205 -47 317 60 48 47 23 78 -32 40 -15 -11 -43 -17 -76 -17 -45 0 -60 5 -92 31 -22 17 -51 36 -66 43 -38 17 -43 40 -14 65 14 12 33 39 43 60 10 21 49 88 86 147 38 60 79 130 93 155 34 64 47 80 77 87 23 6 26 3 30 -32 5 -36 78 -203 100 -231 18 -21 40 6 33 40 -6 24 -3 28 14 28 12 0 21 4 21 9 0 5 9 11 20 14 11 3 20 12 20 20 0 9 -37 61 -82 117 -46 56 -87 109 -93 117 -5 9 -18 25 -28 35 -10 11 -23 33 -29 49 -12 33 -34 38 -43 9z"/> <path d="M2665 9943 c-4 -27 -11 -53 -16 -60 -9 -10 -36 -97 -71 -228 -6 -22 -14 -49 -19 -60 -4 -11 -10 -40 -14 -65 -6 -45 -28 -119 -47 -154 -5 -10 -12 -46 -14 -79 -3 -33 -8 -65 -13 -71 -5 -6 -11 -46 -13 -89 -3 -43 -10 -83 -17 -90 -7 -7 -11 -51 -11 -117 0 -58 -5 -139 -11 -180 -15 -115 8 -747 28 -779 11 -18 14 -41 10 -87 -3 -45 0 -71 11 -91 8 -15 16 -53 18 -83 2 -48 21 -123 45 -185 4 -11 12 -40 19 -65 21 -85 41 -165 54 -220 8 -30 23 -82 34 -115 11 -33 23 -75 27 -93 4 -18 13 -45 21 -60 8 -15 14 -36 14 -47 0 -11 11 -37 25 -57 14 -20 25 -41 25 -45 0 -4 13 -35 29 -68 55 -114 71 -150 71 -158 0 -5 11 -23 24 -40 13 -18 27 -48 31 -67 4 -19 18 -48 31 -63 13 -16 24 -35 24 -44 0 -8 13 -32 28 -52 37 -47 102 -156 102 -170 0 -6 4 -11 9 -11 5 0 13 -12 19 -27 5 -16 18 -37 28 -48 11 -11 49 -65 87 -120 37 -55 96 -131 132 -170 36 -38 65 -73 65 -77 0 -13 130 -156 271 -298 163 -165 203 -200 223 -200 9 0 16 -4 16 -8 0 -10 28 -39 69 -72 18 -14 49 -41 71 -60 22 -20 58 -47 80 -60 23 -14 53 -35 67 -47 14 -13 32 -23 39 -23 7 0 21 -11 31 -24 11 -13 41 -34 69 -46 27 -13 77 -43 111 -69 75 -56 92 -66 262 -153 74 -37 142 -68 153 -68 10 0 18 -4 18 -8 0 -11 66 -42 91 -42 11 0 22 -6 25 -14 3 -8 18 -18 34 -21 15 -3 45 -15 66 -25 22 -12 47 -17 61 -14 13 4 23 2 23 -4 0 -10 75 -42 98 -42 8 0 38 -11 68 -25 48 -22 125 -44 219 -62 17 -3 37 -11 45 -18 8 -7 41 -16 72 -20 32 -3 60 -10 63 -15 3 -4 33 -11 67 -15 69 -8 194 -37 205 -48 3 -4 29 -7 57 -7 28 0 98 -7 156 -15 126 -18 454 -34 514 -25 23 3 66 5 96 3 30 -1 60 -3 65 -3 49 -3 286 20 308 28 16 7 61 12 102 12 45 0 84 6 101 15 16 8 54 15 85 15 38 0 61 5 69 15 7 9 30 15 54 15 22 1 52 7 66 15 14 8 39 15 55 15 17 0 39 7 49 15 11 8 34 15 52 15 18 0 36 5 39 10 3 6 23 10 43 10 20 0 50 7 66 15 15 8 33 15 40 15 6 0 28 9 49 20 20 11 48 20 61 20 33 0 42 16 13 23 -37 9 -116 -9 -140 -31 -14 -13 -36 -22 -56 -22 -28 0 -107 -20 -237 -60 -17 -6 -39 -10 -50 -10 -33 0 -93 -20 -109 -37 -14 -13 -20 -14 -39 -3 -17 8 -29 9 -42 2 -38 -20 -125 -35 -299 -52 -55 -5 -140 -14 -190 -19 -109 -12 -477 -12 -595 -1 -174 16 -206 20 -250 29 -25 6 -72 13 -105 16 -33 4 -76 14 -95 22 -19 8 -63 17 -97 19 -35 2 -79 13 -101 24 -21 11 -62 21 -91 22 -29 1 -55 6 -57 10 -3 4 -18 8 -34 8 -16 0 -32 4 -35 10 -3 5 -16 10 -29 10 -12 0 -31 7 -42 15 -10 8 -36 15 -56 15 -23 0 -40 6 -46 15 -4 9 -21 18 -36 21 -16 3 -46 14 -68 25 -22 11 -49 19 -61 18 -22 -2 -31 1 -102 31 -22 10 -62 25 -88 35 -26 10 -50 22 -53 26 -3 5 -13 9 -22 9 -9 0 -42 15 -72 34 -31 19 -69 38 -85 42 -17 3 -44 17 -62 30 -17 13 -39 24 -48 24 -9 0 -27 11 -41 25 -14 14 -34 25 -45 25 -10 0 -29 11 -40 24 -12 13 -32 27 -45 30 -13 4 -28 15 -34 26 -6 11 -17 20 -24 20 -17 0 -51 18 -92 47 -17 12 -43 27 -58 33 -14 5 -26 14 -26 20 0 5 -15 16 -34 24 -19 8 -39 24 -46 35 -6 12 -16 21 -24 21 -7 0 -22 11 -33 24 -12 13 -35 27 -52 31 -17 4 -31 13 -31 20 0 14 -100 105 -116 105 -5 0 -20 16 -33 35 -13 19 -29 35 -35 35 -15 0 -209 189 -250 242 -15 21 -36 40 -47 43 -11 4 -25 18 -33 33 -8 15 -28 42 -45 59 -17 18 -31 36 -31 40 0 5 -14 16 -30 25 -21 12 -30 25 -30 42 0 17 -8 29 -27 38 -26 13 -49 44 -78 105 -8 18 -21 36 -29 40 -8 4 -37 40 -65 78 -27 39 -61 84 -74 100 -13 17 -27 43 -31 59 -7 28 -61 107 -78 114 -5 2 -8 12 -8 22 0 10 -6 25 -13 32 -15 15 -67 121 -67 137 0 5 -11 23 -25 39 -14 17 -28 45 -31 64 -4 18 -12 40 -19 48 -19 25 -55 90 -55 102 0 15 -31 80 -47 99 -8 10 -21 41 -28 70 -8 30 -21 58 -28 64 -7 5 -19 33 -25 60 -18 82 -45 170 -55 176 -6 4 -4 22 3 45 12 35 11 39 -11 57 -18 14 -23 28 -23 57 1 25 -4 41 -12 44 -9 3 -14 20 -14 43 0 35 -39 166 -54 180 -3 4 -6 29 -6 57 0 29 -6 60 -14 71 -9 14 -17 84 -26 215 -6 107 -15 227 -19 265 -5 39 -6 185 -4 325 3 140 6 298 7 350 0 52 7 108 14 123 6 16 12 45 12 65 0 20 7 62 15 92 8 30 15 68 15 83 0 16 6 43 14 60 8 18 17 46 20 62 23 126 32 164 42 176 18 23 34 93 34 148 0 39 4 51 15 51 9 0 15 9 15 24 0 34 10 56 25 56 16 0 25 22 25 60 0 73 -34 83 -45 13z"/> <path d="M10734 9789 c-3 -6 -1 -16 5 -22 8 -8 11 -5 11 11 0 24 -5 28 -16 11z"/> <path d="M2147 9738 c-9 -21 -22 -61 -28 -90 -6 -29 -15 -57 -20 -62 -5 -6 -9 -19 -9 -31 0 -12 -5 -26 -11 -32 -5 -5 -14 -46 -19 -89 -5 -43 -14 -97 -19 -119 -6 -22 -15 -85 -21 -140 -7 -55 -19 -122 -27 -148 -10 -31 -12 -62 -8 -85 4 -20 7 -226 6 -457 0 -419 2 -454 34 -680 9 -66 14 -134 12 -152 -4 -19 -1 -36 7 -42 7 -6 16 -36 19 -67 5 -53 20 -84 38 -84 13 0 11 88 -3 113 -7 12 -16 49 -20 82 -4 33 -14 112 -22 175 -7 63 -19 137 -25 164 -16 66 -14 1022 2 1051 6 11 17 70 23 130 7 61 20 146 29 190 10 44 20 99 24 123 5 24 13 48 19 54 7 7 12 30 12 51 0 21 7 54 16 72 8 19 14 50 12 71 l-4 39 -17 -37z"/> <path d="M7059 9606 c-14 -5 -34 -22 -45 -37 -10 -16 -26 -29 -35 -29 -13 0 -18 -16 -23 -80 -4 -44 -14 -93 -22 -108 -14 -27 -19 -117 -8 -146 3 -9 16 -16 28 -16 26 1 166 42 186 55 22 15 81 36 119 43 19 4 37 14 41 22 4 8 17 36 30 61 20 39 22 56 18 115 -6 64 -9 71 -41 99 -34 29 -40 30 -129 30 -52 0 -105 -4 -119 -9z m79 -54 c14 -10 11 -168 -5 -182 -4 -4 -42 -10 -83 -12 -74 -3 -75 -3 -72 21 6 39 73 159 96 170 26 12 47 13 64 3z m130 -14 c7 -7 12 -41 12 -85 0 -62 -3 -74 -20 -83 -14 -8 -26 -8 -40 0 -17 9 -20 21 -20 80 0 37 3 75 6 84 7 19 45 21 62 4z m-123 -228 c13 -21 -19 -50 -55 -50 -20 0 -46 -7 -58 -16 -48 -33 -106 13 -60 48 30 22 161 37 173 18z"/> <path d="M10758 9541 c-22 -47 -24 -134 -3 -151 10 -8 15 -30 15 -64 0 -29 5 -57 10 -62 6 -6 13 -48 16 -95 3 -46 12 -98 20 -116 8 -19 14 -65 14 -117 0 -47 7 -111 15 -143 18 -68 22 -565 5 -623 -6 -19 -14 -93 -19 -164 -6 -71 -14 -133 -20 -139 -6 -6 -11 -35 -11 -64 0 -55 -18 -155 -50 -283 -10 -41 -27 -108 -36 -149 -9 -41 -23 -86 -30 -100 -8 -14 -14 -34 -14 -43 0 -9 -4 -20 -10 -23 -5 -3 -10 -19 -10 -34 0 -16 -6 -34 -14 -40 -7 -6 -16 -29 -20 -51 -3 -22 -11 -40 -16 -40 -6 0 -10 -9 -10 -21 0 -11 -16 -54 -35 -95 -19 -40 -35 -79 -35 -87 0 -7 -4 -17 -9 -23 -5 -5 -14 -27 -21 -49 -7 -22 -24 -56 -36 -75 -13 -19 -24 -42 -24 -51 0 -9 -7 -22 -15 -29 -8 -7 -15 -18 -15 -25 0 -17 -29 -74 -57 -111 -13 -17 -23 -34 -23 -38 0 -3 -16 -29 -35 -56 -19 -27 -35 -54 -35 -60 0 -5 -15 -31 -34 -57 -18 -27 -41 -61 -50 -78 -19 -34 -46 -70 -126 -171 -53 -67 -61 -79 -97 -135 -9 -15 -30 -35 -46 -45 -16 -11 -32 -26 -35 -36 -7 -16 -87 -106 -202 -226 -57 -59 -78 -79 -202 -183 -40 -34 -77 -67 -83 -73 -11 -13 -117 -94 -155 -118 -14 -9 -45 -34 -70 -57 -25 -22 -50 -44 -56 -50 -6 -5 -29 -18 -51 -29 -22 -11 -45 -27 -52 -36 -7 -8 -28 -20 -47 -26 -19 -6 -34 -16 -34 -21 0 -6 -19 -19 -42 -31 -72 -34 -110 -56 -134 -77 -13 -11 -35 -23 -48 -27 -14 -3 -30 -12 -37 -20 -6 -8 -15 -14 -20 -14 -4 0 -50 -20 -101 -45 -51 -25 -99 -45 -106 -45 -7 0 -47 -17 -90 -39 -42 -21 -88 -42 -102 -46 -13 -4 -30 -14 -38 -21 -7 -8 -25 -14 -39 -14 -14 0 -37 -6 -51 -14 -15 -8 -54 -22 -87 -31 -33 -9 -69 -21 -80 -25 -30 -14 -213 -61 -270 -70 -49 -8 -207 -36 -252 -46 -13 -2 -23 -9 -23 -14 0 -16 157 -12 190 5 16 8 58 18 92 21 35 3 81 12 103 19 22 8 56 16 76 19 19 4 53 15 74 26 22 11 50 20 62 20 13 0 40 9 60 20 20 11 63 22 95 26 33 4 62 13 66 20 9 16 79 54 99 54 7 0 30 9 50 20 21 11 43 20 49 20 6 0 17 6 23 14 6 8 32 17 56 21 25 3 58 17 74 31 16 13 35 24 42 24 7 0 20 6 28 14 9 8 53 33 99 56 58 29 82 47 82 60 0 14 7 18 33 17 24 -1 53 12 104 46 39 26 74 47 77 47 4 0 21 16 39 35 17 19 37 35 44 35 19 0 82 44 83 58 0 7 10 17 23 23 72 33 167 106 167 128 0 5 6 11 14 13 8 2 62 45 119 96 58 50 110 92 116 92 6 0 15 10 22 23 6 12 28 38 48 58 62 62 144 157 158 184 8 14 18 25 23 25 5 0 20 18 32 40 13 21 32 44 43 51 21 11 130 146 190 234 117 171 185 275 185 283 0 5 9 20 21 33 11 13 23 36 26 51 3 15 12 33 19 39 8 6 14 20 14 30 0 11 5 19 10 19 6 0 15 11 20 24 5 13 25 57 44 99 20 41 36 82 36 90 0 8 9 26 20 40 11 14 20 30 20 36 0 6 4 19 10 29 29 53 51 118 47 140 -3 18 0 26 14 29 13 4 19 14 19 33 0 15 11 48 25 74 14 26 25 57 25 69 0 13 9 41 20 62 11 22 27 78 36 125 9 47 20 90 24 95 5 6 11 28 15 50 3 22 11 60 16 85 5 25 14 83 19 130 13 121 28 211 41 243 8 19 12 147 12 405 0 399 -5 514 -27 627 -8 39 -17 99 -21 135 -4 36 -16 94 -28 129 -16 50 -18 67 -9 82 17 27 15 32 -9 26 -21 -6 -22 -4 -16 84 3 49 5 89 4 89 -1 0 -10 -18 -19 -39z"/> <path d="M2717 9533 c-3 -5 -8 -30 -12 -58 -4 -27 -16 -65 -27 -83 -15 -24 -19 -43 -15 -69 4 -20 1 -45 -5 -57 -6 -11 -12 -55 -14 -96 -1 -41 -9 -113 -18 -160 -22 -113 -34 -287 -36 -506 -3 -290 11 -456 49 -599 6 -22 11 -75 11 -117 0 -59 3 -78 14 -78 10 0 15 -22 18 -86 4 -69 8 -90 23 -100 15 -11 17 -23 12 -69 -6 -61 10 -125 42 -160 11 -12 21 -44 25 -80 4 -33 14 -71 24 -85 20 -31 47 -111 55 -164 4 -21 17 -55 30 -75 14 -20 28 -55 32 -78 6 -40 29 -63 46 -46 8 8 -12 82 -31 115 -5 10 -19 46 -31 80 -11 35 -26 77 -34 93 -37 86 -45 107 -45 126 0 11 -6 30 -14 42 -16 24 -54 155 -67 230 -4 27 -12 54 -17 60 -5 7 -12 52 -16 100 -4 55 -12 94 -20 103 -10 10 -14 37 -13 93 1 63 -2 83 -16 98 -13 15 -17 38 -17 94 0 41 -7 115 -15 164 -18 108 -19 597 -2 630 6 11 14 75 17 142 3 67 11 127 17 135 6 7 13 48 17 91 4 43 12 89 18 103 8 18 8 31 0 50 -11 22 -8 34 18 87 33 67 41 137 16 137 -8 0 -17 -3 -19 -7z"/> <path d="M7355 9339 c-4 -6 1 -16 10 -23 15 -11 15 -13 1 -25 -9 -8 -16 -23 -16 -36 0 -18 8 -24 47 -32 58 -14 63 -9 63 70 l0 57 -49 0 c-28 0 -53 -5 -56 -11z"/> <path d="M1550 9328 c1 -60 81 -258 123 -307 8 -9 18 -27 22 -41 4 -14 16 -41 26 -60 11 -19 19 -44 19 -55 0 -12 4 -25 9 -30 19 -22 41 -115 47 -205 7 -121 11 -132 30 -95 10 19 11 32 4 39 -5 5 -10 42 -10 81 0 40 -3 75 -7 79 -5 4 -13 33 -20 64 -21 102 -25 117 -38 132 -7 8 -16 26 -20 40 -15 50 -94 198 -109 203 -11 4 -16 19 -16 44 0 42 -33 123 -50 123 -5 0 -10 -6 -10 -12z"/> <path d="M5698 9314 c-4 -3 -5 -19 -2 -34 5 -21 -3 -36 -37 -76 -23 -27 -57 -72 -75 -100 -31 -49 -86 -104 -104 -104 -4 0 -10 6 -13 13 -8 20 18 230 31 254 7 12 12 24 12 27 0 3 -51 6 -114 8 l-114 3 14 -28 c29 -54 28 -518 -1 -589 -6 -15 5 -17 97 -20 57 -2 107 0 113 5 5 4 3 18 -8 36 -9 16 -17 46 -17 66 0 20 -5 67 -11 105 -9 55 -9 73 1 85 20 25 46 1 83 -77 50 -104 68 -149 76 -183 l7 -30 123 -8 c68 -4 126 -5 130 -2 3 3 -13 23 -36 43 -22 20 -48 50 -58 66 -29 49 -165 319 -165 329 0 20 126 139 163 154 29 12 37 20 35 37 -3 18 -11 21 -63 24 -34 2 -64 0 -67 -4z"/> <path d="M11852 9183 c-12 -27 -22 -52 -22 -57 0 -5 -11 -23 -24 -40 -32 -42 -66 -111 -66 -134 0 -10 -5 -23 -10 -28 -14 -14 -18 -92 -5 -96 6 -2 11 14 13 34 2 20 10 42 18 48 8 7 14 20 14 29 0 9 11 33 25 53 14 21 30 48 35 60 6 13 14 30 19 38 33 57 53 140 33 140 -4 0 -17 -21 -30 -47z"/> <path d="M7130 9118 c-36 -5 -90 -16 -121 -24 -30 -8 -68 -14 -83 -14 -17 0 -42 -12 -63 -30 -18 -16 -38 -30 -43 -30 -4 0 -11 -13 -15 -30 -7 -31 -66 -90 -90 -90 -20 0 -19 -29 0 -36 8 -4 35 -3 59 0 33 5 46 13 54 31 12 26 40 33 59 14 25 -25 579 -37 604 -12 6 6 9 47 7 99 l-3 89 -50 8 c-27 4 -77 12 -110 18 -98 16 -136 18 -205 7z m195 -67 c61 -12 72 -17 63 -27 -9 -9 -340 -5 -373 4 -28 8 -26 9 24 15 30 4 59 11 65 17 13 13 132 8 221 -9z"/> <path d="M5103 8786 c-71 -68 -80 -74 -105 -79 -22 -4 -22 -4 3 -6 49 -2 143 62 162 112 11 29 -11 19 -60 -27z"/> <path d="M3365 8809 c-79 -8 -159 -29 -177 -47 -7 -7 -18 -12 -25 -12 -7 0 -39 -26 -71 -57 -55 -54 -102 -130 -102 -164 0 -8 -5 -20 -12 -27 -20 -20 -23 -190 -4 -236 9 -21 16 -46 16 -55 0 -22 31 -83 66 -128 56 -74 108 -109 215 -147 68 -24 296 -25 367 -1 29 9 55 21 58 26 3 5 13 9 24 9 22 0 101 85 123 133 30 62 46 152 33 179 -13 26 -48 35 -62 16 -6 -7 -18 -40 -28 -73 -41 -138 -85 -186 -188 -210 -64 -14 -75 -14 -125 0 -70 21 -106 47 -147 110 -54 80 -71 164 -71 345 0 143 2 158 23 198 52 98 213 110 265 20 12 -21 17 -52 17 -104 0 -83 19 -123 72 -150 41 -21 124 -18 163 6 61 38 80 125 41 195 -35 64 -145 145 -197 145 -11 0 -32 6 -47 14 -35 17 -138 24 -227 15z m323 -216 c9 -7 13 -16 9 -19 -11 -11 -37 17 -36 40 0 14 2 16 6 6 3 -8 12 -21 21 -27z m-528 -42 c0 -6 -4 -13 -10 -16 -5 -3 -10 -17 -10 -30 0 -13 -5 -27 -10 -30 -7 -4 -5 -14 5 -28 8 -12 15 -41 15 -65 0 -24 8 -57 18 -74 16 -28 16 -30 -1 -43 -17 -12 -17 -15 -3 -44 18 -35 21 -67 6 -76 -15 -9 -40 14 -40 37 0 10 -11 30 -25 44 -22 22 -26 37 -30 102 -5 78 9 172 26 172 19 0 21 31 3 45 -18 13 -16 14 19 15 20 0 37 -4 37 -9z m57 -427 c-9 -9 -28 6 -21 18 4 6 10 6 17 -1 6 -6 8 -13 4 -17z"/> <path d="M4085 8808 c-118 -19 -160 -33 -160 -54 0 -15 9 -20 45 -24 25 -3 50 -9 57 -13 15 -9 7 -658 -9 -700 -6 -15 -24 -35 -40 -43 -24 -12 -27 -18 -18 -34 6 -11 14 -20 18 -20 172 -5 366 0 377 10 22 18 19 28 -15 45 -36 19 -50 63 -50 161 0 113 17 184 53 222 31 32 67 41 95 24 23 -15 29 -66 25 -217 -7 -233 6 -249 212 -243 105 3 110 4 113 26 2 12 -2 22 -8 22 -6 0 -22 11 -35 25 -24 24 -25 28 -25 187 -1 239 -13 275 -110 309 -87 31 -176 13 -250 -51 -47 -40 -69 -54 -72 -43 -1 4 -2 94 -2 200 -1 138 -4 195 -13 204 -16 16 -111 20 -188 7z m100 -231 c10 -75 4 -101 -21 -105 -29 -4 -49 21 -29 38 8 7 15 27 15 44 0 40 10 76 20 76 5 0 12 -24 15 -53z m7 -129 c21 -17 40 -90 32 -122 -3 -14 -15 -28 -25 -31 -13 -5 -18 -13 -15 -28 15 -73 16 -107 5 -159 -12 -52 -29 -79 -29 -44 0 7 -7 19 -15 26 -13 11 -13 15 0 33 19 28 19 51 -1 68 -13 11 -15 26 -11 76 2 35 1 66 -4 69 -5 3 -5 13 1 24 5 10 8 25 5 33 -8 19 12 67 28 67 7 0 20 -6 29 -12z m392 -64 c9 -25 7 -34 -8 -34 -19 0 -29 17 -22 35 7 20 22 19 30 -1z m11 -99 c18 -55 15 -90 -7 -83 -12 4 -38 80 -38 116 0 43 28 23 45 -33z m21 -142 c-18 -105 -17 -103 -32 -53 -18 56 -11 90 17 90 19 0 21 -4 15 -37z"/> <path d="M7469 8816 c-2 -2 -40 -7 -85 -10 -69 -5 -144 -27 -144 -42 0 -3 4 -14 10 -24 8 -14 18 -17 49 -13 25 4 41 1 46 -8 11 -17 6 -689 -5 -709 -5 -9 -20 -22 -34 -30 -30 -15 -34 -46 -8 -57 9 -4 97 -7 195 -5 202 3 214 8 153 65 l-36 34 0 127 c0 137 7 164 58 219 18 18 36 27 57 27 28 0 34 -6 50 -40 16 -35 17 -59 13 -183 -3 -78 -2 -155 1 -171 11 -52 47 -68 160 -71 55 -2 105 -6 111 -10 13 -8 50 22 50 42 0 7 -5 13 -10 13 -6 0 -22 12 -35 26 -24 26 -25 31 -25 188 -1 238 -12 271 -97 304 -93 36 -186 17 -270 -54 -25 -21 -51 -39 -57 -39 -8 0 -10 54 -7 191 l3 191 -27 21 c-25 20 -102 31 -116 18z m29 -176 c7 -45 -8 -90 -28 -90 -23 0 -24 13 -9 76 12 47 32 54 37 14z m10 -163 c2 -14 12 -43 22 -64 13 -27 15 -43 9 -56 -6 -9 -7 -22 -4 -28 4 -5 -2 -24 -13 -42 -15 -26 -19 -51 -18 -115 1 -77 0 -83 -19 -80 -17 3 -20 11 -22 68 -6 169 -1 335 10 342 19 12 32 3 35 -25z m408 -149 c9 -15 13 -238 4 -243 -19 -12 -32 19 -36 91 -2 43 -6 95 -9 115 -3 20 -2 39 2 42 10 11 31 8 39 -5z"/> <path d="M6828 8793 c-47 -19 -48 -40 -5 -58 l34 -14 6 -113 c4 -67 2 -117 -4 -123 -6 -6 -21 -4 -42 4 -88 38 -179 19 -263 -53 -72 -61 -86 -101 -85 -239 0 -93 3 -123 16 -136 8 -10 15 -23 15 -30 0 -24 74 -87 120 -101 61 -20 184 -18 238 3 39 16 46 16 80 1 46 -19 181 -21 225 -3 36 15 47 26 47 52 0 15 -6 16 -39 11 -64 -10 -64 -11 -60 406 5 447 17 410 -140 409 -72 0 -118 -5 -143 -16z m187 -270 c3 -33 0 -43 -11 -43 -12 0 -14 -13 -9 -77 4 -43 8 -84 11 -91 6 -19 -15 -54 -27 -46 -6 3 -8 16 -5 28 3 14 -1 28 -13 38 -42 36 -8 245 38 236 8 -2 14 -20 16 -45z m-225 -90 c34 -20 58 -79 70 -173 5 -36 14 -81 20 -100 5 -19 10 -61 10 -93 0 -55 -1 -58 -34 -74 -19 -9 -44 -13 -57 -10 -29 8 -59 58 -59 97 0 16 -6 49 -14 72 -17 51 -31 226 -21 257 5 18 30 36 53 40 2 1 17 -7 32 -16z m-190 -198 c0 -14 -4 -25 -10 -25 -11 0 -14 33 -3 43 11 11 13 8 13 -18z m400 -11 c0 -8 -4 -14 -10 -14 -5 0 -10 9 -10 21 0 11 5 17 10 14 6 -3 10 -13 10 -21z m-382 -77 c2 -20 -1 -37 -6 -37 -14 0 -35 47 -28 65 10 28 31 11 34 -28z"/> <path d="M11686 8790 c-27 -83 -45 -244 -28 -254 15 -9 22 20 22 90 0 35 7 81 16 103 11 29 13 45 6 58 -9 15 -11 15 -16 3z"/> <path d="M5040 8488 c-97 -34 -183 -114 -195 -182 -11 -54 -10 -141 0 -191 10 -52 71 -145 95 -145 10 0 23 -6 29 -13 33 -41 271 -56 351 -24 71 29 110 65 138 126 46 101 32 268 -30 342 -25 30 -101 79 -123 79 -13 0 -39 7 -58 15 -48 20 -139 17 -207 -7z m145 -75 c14 -16 25 -40 25 -56 0 -15 7 -44 15 -64 8 -19 15 -53 15 -75 0 -21 5 -71 12 -109 10 -61 9 -75 -5 -105 -15 -30 -21 -34 -57 -34 -34 0 -42 4 -55 30 -8 16 -15 42 -15 57 0 15 -7 41 -15 57 -8 15 -15 49 -15 75 -1 25 -7 64 -15 86 -21 57 -19 108 6 139 28 35 70 35 104 -1z m181 -188 c8 -56 -7 -84 -19 -35 -5 19 -11 51 -14 70 -5 31 -4 33 10 22 9 -8 19 -33 23 -57z m-385 -88 c-16 -16 -20 -5 -8 23 9 22 11 23 14 6 3 -10 0 -23 -6 -29z"/> <path d="M6120 8492 c-41 -8 -87 -19 -102 -24 -40 -15 -36 -43 10 -65 l37 -18 3 -95 c5 -130 -10 -191 -54 -229 -51 -45 -95 -43 -124 6 -20 35 -21 45 -16 177 8 181 3 222 -35 241 -35 18 -81 19 -182 1 -84 -15 -125 -39 -106 -63 6 -7 17 -13 24 -13 6 0 20 -9 30 -20 17 -18 19 -41 19 -211 l1 -190 25 -20 c47 -37 90 -49 175 -49 94 0 138 14 183 60 38 37 57 38 74 3 23 -49 66 -65 172 -64 112 0 156 16 156 57 0 23 -3 25 -26 20 -14 -4 -34 -4 -45 -1 -18 6 -19 18 -19 226 0 123 -4 228 -10 238 -9 19 -80 52 -103 50 -6 -1 -46 -8 -87 -17z m-360 -170 c0 -15 5 -33 10 -38 7 -7 10 -49 8 -105 -2 -76 -6 -94 -18 -94 -12 0 -14 13 -12 68 3 55 0 73 -14 89 -15 16 -16 21 -4 28 11 7 10 11 -3 25 -26 26 -22 55 8 55 21 0 25 -5 25 -28z m410 3 c0 -14 5 -25 11 -25 5 0 15 -13 20 -30 6 -16 15 -30 21 -30 7 0 8 -29 3 -82 -6 -66 -12 -85 -29 -100 -11 -9 -27 -17 -33 -18 -15 0 -17 16 -3 25 6 4 5 13 -2 24 -6 10 -8 26 -4 36 5 14 9 15 21 5 13 -11 15 -5 15 43 0 31 -4 59 -10 62 -5 3 -10 17 -10 30 0 13 -4 27 -10 30 -5 3 -10 17 -10 31 0 13 5 24 10 24 6 0 10 -11 10 -25z"/> <path d="M8410 8498 c-75 -20 -86 -24 -127 -46 -47 -25 -62 -58 -44 -98 10 -22 16 -24 80 -24 l69 0 22 45 c34 71 87 95 137 60 33 -23 57 -145 31 -161 -7 -5 -48 -7 -91 -5 -118 4 -249 -40 -292 -98 -16 -21 -20 -42 -20 -104 0 -72 2 -80 25 -98 55 -44 83 -52 165 -51 91 1 147 20 171 57 21 31 51 32 65 2 20 -44 58 -57 169 -57 69 0 110 5 129 15 49 25 52 72 4 60 -14 -3 -33 -3 -44 0 -18 6 -19 18 -19 180 l0 174 -58 60 c-35 36 -71 62 -88 66 -16 3 -51 13 -78 21 -54 16 -152 17 -206 2z m314 -220 c10 -17 13 -46 11 -103 -2 -45 1 -85 7 -92 7 -9 6 -15 -6 -19 -24 -9 -43 12 -49 54 -3 20 -10 61 -16 91 -11 57 -2 91 24 91 8 0 21 -10 29 -22z m-159 -68 c26 -10 27 -13 20 -63 -12 -101 -15 -108 -51 -123 -69 -29 -118 7 -118 86 0 38 6 55 23 74 21 22 36 28 88 35 6 0 24 -4 38 -9z"/> <path d="M9105 8495 c-27 -8 -62 -16 -76 -19 -15 -3 -37 -14 -49 -24 -21 -17 -22 -19 -5 -36 12 -11 26 -15 44 -11 16 3 34 0 46 -9 19 -14 20 -24 17 -198 -4 -192 -8 -209 -53 -223 -22 -7 -25 -38 -5 -54 7 -6 21 -9 29 -5 9 3 92 7 184 7 148 2 168 4 171 19 2 10 -9 23 -27 34 -43 25 -51 53 -51 171 0 146 15 215 58 259 35 36 46 39 86 24 24 -9 26 -14 26 -77 1 -97 16 -113 108 -113 65 0 72 2 101 32 90 92 -32 238 -201 238 -65 0 -117 -21 -157 -64 -32 -34 -47 -33 -59 3 -20 56 -87 73 -187 46z m122 -131 c-9 -9 -28 6 -21 18 4 6 10 6 17 -1 6 -6 8 -13 4 -17z m7 -86 c-4 -24 -7 -66 -6 -94 1 -40 -3 -56 -18 -69 -26 -24 -35 -13 -21 25 7 23 7 45 -1 80 -9 42 -9 53 6 74 9 14 24 26 33 26 13 0 14 -7 7 -42z"/> <path d="M9764 8481 c-13 -13 1 -34 36 -58 29 -18 49 -43 67 -82 66 -145 86 -188 98 -216 7 -16 19 -46 27 -65 8 -19 28 -64 45 -100 26 -57 42 -102 59 -175 3 -11 -4 -35 -15 -52 -38 -61 -101 -33 -101 44 0 31 -7 48 -29 72 -26 27 -35 31 -83 31 -73 0 -98 -25 -98 -96 0 -44 4 -54 33 -80 52 -48 77 -56 167 -62 131 -7 175 21 249 162 17 32 31 63 31 69 0 5 25 62 56 126 55 113 90 190 120 261 8 19 19 43 24 52 6 10 10 25 10 35 0 9 23 38 51 64 72 67 65 79 -49 79 -68 0 -93 -4 -102 -15 -11 -13 -9 -20 13 -43 32 -33 33 -49 8 -105 -52 -115 -71 -161 -71 -174 0 -18 -38 -93 -48 -93 -11 0 -42 59 -42 79 0 19 -67 180 -81 196 -5 5 -9 24 -9 43 0 25 8 40 31 59 18 16 27 29 21 35 -9 9 -409 17 -418 9z m311 -222 c8 -24 -1 -36 -30 -41 -15 -2 -21 3 -23 21 -6 40 41 57 53 20z m35 -100 c0 -9 -47 -39 -52 -33 -3 2 2 20 11 40 14 32 17 33 28 18 7 -10 13 -21 13 -25z m22 -69 c-3 -31 -14 -41 -31 -31 -20 13 -6 63 17 59 11 -3 16 -12 14 -28z m30 -80 c5 -36 -3 -44 -27 -26 -12 9 -15 19 -11 34 11 32 33 27 38 -8z"/> <path d="M11654 8373 c1 -60 7 -125 14 -145 25 -80 32 -105 32 -124 0 -11 9 -37 20 -59 11 -22 20 -44 20 -51 0 -6 9 -19 20 -29 11 -10 20 -28 20 -40 0 -12 9 -33 21 -46 11 -13 29 -35 40 -49 l18 -25 1 32 c0 17 -4 34 -8 37 -5 3 -25 38 -46 78 -21 40 -45 80 -52 89 -8 8 -14 27 -14 41 0 14 -6 31 -14 37 -8 7 -16 31 -19 54 -3 23 -10 71 -16 107 -6 36 -13 95 -16 133 -10 104 -23 79 -21 -40z"/> <path d="M1807 8434 c-4 -4 -7 -51 -7 -104 0 -69 -4 -102 -15 -116 -8 -10 -15 -32 -15 -47 0 -16 -6 -41 -13 -55 -7 -15 -31 -63 -53 -107 -21 -44 -49 -97 -61 -117 -13 -21 -23 -49 -23 -62 0 -14 -6 -31 -13 -38 -18 -18 -60 -145 -52 -157 3 -6 -1 -26 -9 -45 -19 -45 -29 -293 -15 -366 6 -30 14 -81 17 -112 4 -31 11 -60 15 -64 26 -26 31 93 6 122 -15 17 -16 38 -8 184 8 168 23 291 40 322 5 10 9 31 9 47 0 39 9 61 26 61 18 0 34 32 34 69 0 16 4 32 9 35 13 9 78 147 86 184 4 17 10 32 14 32 5 0 13 19 19 43 6 23 16 62 22 87 19 73 9 226 -13 204z"/> <path d="M2908 7819 c-5 -3 -8 -24 -6 -45 l3 -39 3375 0 3375 0 1 35 c0 19 -1 40 -3 45 -4 11 -6727 15 -6745 4z"/> <path d="M10364 7816 c-3 -8 -4 -29 -2 -48 l3 -33 105 0 105 0 2 30 c3 64 1 65 -108 65 -76 0 -101 -3 -105 -14z"/> <path d="M11864 7764 c3 -9 6 -18 6 -20 0 -2 5 -4 10 -4 6 0 10 9 10 20 0 12 -7 20 -16 20 -11 0 -14 -5 -10 -16z"/> <path d="M11894 7665 c-3 -8 -3 -19 1 -25 11 -18 25 -11 25 15 0 27 -17 34 -26 10z"/> <path d="M11910 7490 c0 -33 4 -60 10 -60 6 0 10 -34 10 -82 0 -57 3 -78 10 -68 13 20 13 137 -1 145 -6 4 -10 28 -9 54 2 64 1 71 -10 71 -6 0 -10 -27 -10 -60z"/> <path d="M3551 7491 c-12 -8 -13 -14 -3 -35 14 -32 35 -33 55 -2 24 36 -13 62 -52 37z"/> <path d="M3885 7489 c-10 -16 4 -59 19 -59 15 0 46 32 46 47 0 21 -54 31 -65 12z"/> <path d="M4009 7493 c-12 -3 -16 -16 -16 -51 1 -26 -5 -85 -13 -130 -11 -72 -11 -85 1 -93 18 -11 50 -11 68 0 12 8 13 12 1 25 -15 19 -8 142 10 160 16 16 12 83 -6 90 -16 6 -19 6 -45 -1z"/> <path d="M9691 7486 c-10 -12 -8 -19 8 -35 11 -11 27 -18 35 -15 18 7 30 39 21 54 -9 15 -51 12 -64 -4z"/> <path d="M9936 7491 c-15 -6 -20 -18 -20 -47 -1 -38 -2 -39 -39 -40 -49 -1 -73 -25 -91 -88 -15 -48 -14 -53 3 -76 18 -24 24 -25 91 -18 8 1 29 -2 45 -5 17 -4 37 -3 45 2 12 8 11 13 -5 31 -19 20 -19 23 -2 69 9 27 17 57 17 67 0 10 6 33 12 52 11 30 11 35 -7 48 -21 16 -22 16 -49 5z m-24 -127 c4 -3 -2 -29 -11 -57 -13 -38 -23 -52 -37 -52 -25 0 -31 57 -9 91 14 22 44 32 57 18z"/> <path d="M3363 7471 c-38 -19 -74 -63 -90 -111 -20 -55 -16 -76 21 -114 29 -32 39 -36 82 -36 56 0 69 6 78 38 8 25 5 26 -42 13 -41 -12 -56 -7 -71 25 -18 41 10 123 51 145 18 10 24 8 40 -10 23 -29 62 -25 66 7 8 52 -70 77 -135 43z"/> <path d="M4292 7475 c-38 -21 -74 -58 -88 -92 -40 -92 3 -173 91 -173 52 0 85 14 85 35 0 11 -12 14 -49 14 -27 -1 -54 2 -60 5 -6 4 -11 31 -11 61 0 45 5 58 29 84 34 36 56 39 71 10 14 -24 48 -22 64 4 9 15 6 23 -17 43 -31 27 -77 30 -115 9z"/> <path d="M6440 7480 c0 -5 -6 -10 -14 -10 -27 0 -46 -41 -40 -82 6 -33 4 -39 -17 -47 -14 -5 -31 -21 -38 -35 -12 -22 -12 -30 0 -52 20 -38 48 -48 104 -36 33 7 55 7 71 0 28 -13 74 -3 74 17 0 7 -9 16 -19 20 -35 11 -34 37 4 70 38 35 37 45 -7 45 -21 0 -28 -5 -28 -20 0 -29 -30 -38 -46 -15 -20 26 -18 31 16 45 43 18 50 55 17 86 -26 24 -77 33 -77 14z m47 -56 c7 -19 -20 -49 -36 -40 -12 8 -15 39 -4 49 12 12 33 7 40 -9z m-38 -128 c28 -45 27 -48 -16 -44 -31 2 -39 7 -41 26 -3 23 13 52 28 52 5 0 18 -15 29 -34z"/> <path d="M6750 7475 c0 -8 4 -25 10 -40 7 -19 6 -33 -4 -53 -7 -15 -16 -48 -20 -74 -5 -34 -12 -49 -27 -53 -10 -4 -19 -13 -19 -20 0 -17 41 -29 69 -20 17 5 19 12 15 58 -6 61 6 88 30 68 11 -9 16 -30 16 -63 0 -82 47 -77 67 8 9 36 8 43 -8 53 -14 8 -19 23 -19 60 0 56 -17 75 -72 84 -28 4 -38 2 -38 -8z"/> <path d="M6984 7476 c-41 -18 -62 -67 -44 -101 17 -32 7 -92 -21 -121 l-22 -23 28 -11 c46 -18 109 4 74 26 -6 3 -8 18 -5 33 3 14 10 50 16 79 5 29 18 64 30 79 39 50 13 69 -56 39z"/> <path d="M8820 7477 c0 -1 4 -16 9 -34 11 -39 -21 -172 -45 -190 -9 -7 -14 -19 -11 -28 7 -18 77 -21 108 -4 19 10 20 12 4 29 -11 12 -14 26 -9 44 5 23 11 26 39 24 38 -2 75 19 94 56 31 57 -31 106 -134 106 -30 0 -55 -1 -55 -3z m135 -66 c7 -19 -27 -75 -49 -79 -17 -4 -18 1 -11 43 10 71 13 76 36 62 10 -6 21 -18 24 -26z"/> <path d="M4970 7443 c-8 -3 -27 -17 -42 -31 -19 -18 -25 -29 -19 -41 5 -9 4 -41 -2 -74 -13 -73 1 -93 57 -83 41 8 45 18 15 37 -18 13 -19 19 -10 58 5 26 19 52 31 61 21 16 22 18 6 48 -9 18 -18 32 -19 31 -1 0 -9 -3 -17 -6z"/> <path d="M5719 7422 c-30 -27 -32 -33 -36 -112 -4 -88 1 -100 42 -100 11 0 27 4 35 10 12 7 12 12 -4 29 -23 25 -14 98 15 121 15 12 18 23 13 48 -8 39 -24 40 -65 4z"/> <path d="M11347 7430 c-3 -8 -8 -42 -10 -75 -3 -33 -7 -69 -10 -80 -2 -11 -2 -15 0 -8 2 6 15 19 29 27 18 13 24 25 24 54 -1 45 -25 105 -33 82z"/> <path d="M2097 7424 c-3 -3 -2 -16 3 -27 12 -32 53 -208 54 -234 1 -12 7 -28 14 -35 6 -6 12 -26 12 -42 1 -17 7 -42 15 -56 8 -14 14 -34 15 -45 0 -11 7 -33 15 -49 8 -15 15 -36 15 -46 0 -10 13 -47 28 -82 16 -34 41 -99 57 -143 15 -44 36 -86 47 -94 10 -7 18 -26 18 -41 0 -15 6 -33 14 -39 8 -7 18 -27 22 -44 3 -18 20 -51 35 -74 16 -23 29 -50 29 -61 0 -21 45 -108 61 -117 5 -4 9 -15 9 -25 0 -10 11 -32 25 -48 14 -17 25 -37 25 -46 0 -9 18 -36 40 -60 22 -24 40 -48 40 -54 0 -6 14 -27 30 -45 17 -19 30 -40 30 -46 0 -6 5 -11 10 -11 6 0 10 -9 10 -20 0 -10 12 -34 28 -52 40 -49 72 -96 72 -107 0 -6 11 -18 24 -26 13 -9 26 -29 29 -45 4 -16 15 -31 25 -34 11 -4 23 -15 28 -25 11 -24 56 -79 117 -146 26 -28 47 -57 47 -63 0 -6 12 -19 28 -29 15 -10 32 -25 39 -34 25 -33 312 -318 431 -426 67 -61 147 -126 177 -143 30 -17 58 -38 63 -46 8 -14 43 -41 173 -133 31 -22 68 -43 83 -47 15 -3 34 -17 43 -30 8 -13 25 -24 37 -24 12 0 40 -16 62 -35 21 -19 47 -38 58 -41 10 -4 46 -24 79 -45 34 -22 67 -37 73 -35 7 3 18 -1 24 -9 11 -13 251 -135 266 -135 4 0 15 -6 23 -13 9 -7 54 -28 101 -46 47 -18 103 -41 125 -51 62 -29 173 -62 184 -55 17 10 0 35 -22 35 -25 0 -167 58 -342 140 -44 21 -90 41 -102 44 -13 4 -23 12 -23 17 0 5 -10 9 -22 9 -13 0 -36 9 -53 20 -16 11 -38 20 -47 20 -10 0 -18 4 -18 9 0 5 -9 13 -20 16 -11 3 -57 27 -103 52 -45 26 -94 52 -108 60 -15 7 -32 20 -39 28 -7 8 -18 15 -25 15 -6 0 -20 9 -29 19 -10 11 -32 25 -49 32 -18 7 -37 18 -43 24 -11 9 -114 77 -157 102 -11 6 -22 15 -26 20 -3 4 -26 24 -51 43 -25 19 -49 38 -55 42 -5 5 -24 18 -42 31 -62 44 -158 123 -232 192 -157 147 -426 424 -499 514 -42 52 -87 105 -99 118 -13 13 -23 28 -23 33 0 6 -17 28 -37 51 -21 23 -49 60 -63 83 -14 24 -47 76 -75 116 -27 40 -54 80 -60 89 -5 9 -16 27 -25 40 -35 56 -125 206 -139 231 -24 45 -43 83 -76 150 -64 131 -75 155 -75 163 0 4 -18 45 -40 91 -22 46 -40 88 -40 93 0 6 -6 16 -14 22 -8 6 -16 26 -19 44 -2 18 -15 57 -27 87 -39 95 -90 250 -90 274 0 12 -5 27 -11 33 -5 5 -13 37 -16 69 -3 32 -12 71 -19 86 -8 15 -14 45 -14 68 0 32 -4 40 -18 40 -10 0 -21 -3 -25 -6z"/> <path d="M6160 7409 c-13 -6 -35 -7 -48 -4 -46 11 -59 -1 -58 -58 0 -28 -4 -69 -8 -89 -7 -32 -6 -39 9 -44 24 -9 50 23 60 72 3 20 13 47 22 60 14 22 17 23 43 9 26 -13 30 -13 44 1 18 17 19 24 8 40 -11 18 -45 23 -72 13z"/> <path d="M8615 7410 c-11 -4 -36 -6 -56 -3 -42 6 -54 -7 -50 -52 1 -17 -5 -53 -14 -79 -14 -40 -14 -50 -3 -57 19 -13 48 -11 52 4 43 148 53 162 87 132 19 -18 20 -18 42 4 l22 22 -24 20 c-26 21 -27 21 -56 9z"/> <path d="M9155 7409 c-16 -5 -43 -6 -58 -3 -35 7 -59 -11 -51 -41 3 -12 -3 -47 -14 -78 -21 -65 -13 -84 33 -73 19 5 25 13 25 35 0 33 35 121 47 121 5 0 19 -7 31 -16 21 -14 23 -14 34 11 16 36 -5 56 -47 44z"/> <path d="M9300 7408 c-45 -12 -72 -49 -78 -108 -6 -61 19 -90 76 -90 61 0 112 59 112 128 0 58 -45 86 -110 70z m44 -86 c-1 -47 -23 -78 -48 -69 -37 14 -6 122 32 115 13 -3 17 -14 16 -46z"/> <path d="M3527 7399 c-13 -8 -15 -14 -7 -29 7 -14 6 -32 -5 -65 -9 -25 -13 -54 -10 -65 7 -23 38 -34 71 -26 28 7 31 24 8 40 -14 11 -14 17 0 71 14 56 14 61 -1 73 -20 14 -32 15 -56 1z"/> <path d="M3631 7396 c-8 -10 -8 -16 3 -25 8 -7 17 -40 21 -74 8 -70 18 -87 50 -87 41 0 105 97 109 165 1 26 -3 30 -24 30 -23 0 -25 -3 -22 -44 3 -34 -1 -48 -19 -67 -28 -30 -39 -18 -39 48 0 36 -4 50 -19 58 -27 14 -46 13 -60 -4z"/> <path d="M3865 7400 c-4 -6 -9 -48 -11 -94 -4 -78 -3 -85 16 -91 43 -14 76 15 49 42 -9 9 -9 27 1 73 11 53 11 63 -1 71 -19 12 -46 11 -54 -1z"/> <path d="M4488 7402 c-29 -12 -61 -62 -65 -106 -5 -38 -2 -45 23 -65 41 -32 107 -25 139 15 41 51 43 134 5 154 -21 11 -76 12 -102 2z m70 -58 c2 -12 -4 -39 -12 -59 -30 -71 -75 -15 -46 59 12 34 53 34 58 0z"/> <path d="M4674 7398 c-3 -5 -7 -35 -9 -67 -1 -32 -8 -68 -14 -79 -9 -18 -8 -23 8 -32 28 -14 51 -2 52 29 1 48 33 116 54 116 22 0 24 -17 9 -89 -6 -32 -4 -41 11 -52 22 -16 44 -18 65 -4 12 7 11 12 -5 30 -16 18 -17 25 -7 54 13 36 16 95 5 97 -32 6 -165 3 -169 -3z"/> <path d="M5063 7403 c-9 -3 -11 -17 -7 -41 3 -23 -1 -56 -11 -86 -18 -52 -12 -65 27 -66 19 0 48 57 48 95 0 13 8 33 18 45 16 20 21 21 40 9 19 -12 24 -11 38 3 32 32 11 46 -68 45 -40 0 -79 -2 -85 -4z"/> <path d="M5275 7377 c-37 -37 -54 -102 -35 -136 14 -28 55 -37 83 -18 20 13 25 13 45 -1 18 -12 28 -13 48 -3 22 9 24 14 14 26 -12 15 -10 84 5 131 8 25 -14 34 -83 34 -36 0 -50 -6 -77 -33z m87 -42 c-7 -79 -53 -116 -60 -49 -5 48 14 86 41 82 18 -2 21 -8 19 -33z"/> <path d="M5532 7394 c-51 -36 -68 -123 -32 -162 23 -24 77 -30 110 -12 26 14 15 42 -14 34 -11 -2 -30 1 -40 9 -15 11 -17 21 -12 49 9 51 30 66 57 42 15 -14 24 -16 37 -8 22 14 28 44 10 55 -22 14 -92 10 -116 -7z"/> <path d="M5855 7383 c-78 -84 -37 -190 66 -169 53 10 89 62 89 127 0 43 -31 69 -85 69 -35 0 -49 -5 -70 -27z m95 -48 c0 -68 -61 -117 -76 -61 -9 37 23 96 52 96 21 0 24 -5 24 -35z"/> <path d="M7114 7396 c-46 -33 -71 -138 -40 -168 9 -10 37 -13 96 -12 45 2 84 5 88 8 3 3 -3 15 -13 26 -16 18 -17 25 -6 58 7 20 13 51 14 67 2 30 2 30 -58 33 -41 2 -67 -2 -81 -12z m76 -51 c0 -37 -31 -96 -50 -93 -21 4 -25 64 -5 94 21 33 55 32 55 -1z"/> <path d="M7314 7398 c-3 -4 -3 -16 0 -26 6 -17 -4 -79 -19 -128 -5 -15 -2 -23 10 -28 30 -11 52 11 60 60 8 54 30 94 52 94 13 0 14 -12 8 -69 -6 -64 -5 -70 14 -81 15 -8 26 -8 42 0 19 11 19 13 5 29 -13 14 -14 24 -5 48 5 17 9 48 7 70 l-3 38 -83 1 c-45 1 -85 -3 -88 -8z"/> <path d="M7553 7397 c-3 -6 -5 -34 -4 -63 1 -31 -4 -67 -13 -86 -22 -50 -25 -108 -4 -121 25 -16 75 8 58 28 -6 8 -10 24 -8 37 2 19 11 24 43 28 51 6 68 17 89 57 19 38 21 109 4 120 -20 12 -157 13 -165 0z m125 -53 c2 -12 -4 -38 -12 -58 -12 -28 -21 -36 -40 -36 -21 0 -26 5 -26 25 0 14 7 42 15 61 11 28 19 35 37 32 15 -2 24 -11 26 -24z"/> <path d="M7794 7374 c-28 -29 -34 -43 -34 -78 0 -62 29 -90 87 -83 26 3 54 14 67 26 32 30 49 91 35 127 -14 37 -25 44 -78 44 -37 0 -49 -5 -77 -36z m104 -34 c3 -34 -34 -92 -56 -88 -24 4 -28 62 -7 94 21 33 59 29 63 -6z"/> <path d="M7995 7400 c-4 -6 -1 -24 5 -41 8 -18 10 -48 6 -79 -6 -47 -5 -51 20 -62 23 -11 28 -9 45 12 22 29 24 47 7 52 -7 3 -15 30 -18 64 -5 55 -7 59 -32 62 -14 2 -29 -2 -33 -8z"/> <path d="M8133 7403 c-7 -2 -13 -15 -13 -28 0 -13 -4 -27 -10 -30 -12 -7 -14 -55 -2 -55 4 0 14 6 21 13 11 10 13 5 8 -30 -10 -82 43 -83 89 -2 16 28 35 61 42 72 18 32 11 61 -16 65 -26 4 -38 -19 -24 -45 8 -13 6 -25 -6 -45 -9 -16 -20 -28 -24 -28 -7 0 -14 32 -20 90 -3 24 -21 34 -45 23z"/> <path d="M8355 7392 c-58 -49 -72 -122 -32 -160 25 -24 75 -29 108 -11 27 14 14 29 -26 29 -19 0 -36 3 -38 8 -10 19 6 101 21 107 25 9 40 -14 20 -29 -24 -18 -22 -26 5 -26 29 0 67 39 67 67 0 35 -89 46 -125 15z"/> <path d="M9444 7395 c-3 -8 1 -24 10 -37 9 -13 16 -43 16 -70 0 -48 18 -78 46 -78 17 0 61 44 76 75 5 11 15 31 24 45 29 50 -2 103 -41 70 -11 -9 -11 -16 -3 -29 17 -28 -8 -101 -30 -87 -5 3 -13 27 -17 53 -4 27 -12 54 -17 61 -14 17 -57 15 -64 -3z"/> <path d="M9671 7401 c-10 -6 -11 -13 -2 -29 9 -16 7 -32 -4 -67 -9 -25 -13 -54 -10 -65 7 -22 37 -34 65 -25 21 7 28 35 9 35 -8 0 -9 13 -4 43 4 23 8 58 9 77 1 30 -2 35 -24 38 -14 1 -31 -2 -39 -7z"/> <path d="M10096 7403 c-47 -12 -84 -97 -65 -151 8 -25 18 -33 45 -38 43 -8 84 2 84 21 0 10 -10 15 -30 15 -19 0 -33 6 -37 16 -7 18 11 31 61 49 35 12 55 57 36 80 -12 15 -55 18 -94 8z m37 -39 c9 -10 -12 -46 -24 -39 -14 9 -11 45 4 45 8 0 17 -3 20 -6z"/> <path d="M10231 7397 c-6 -6 -6 -17 -2 -26 5 -10 3 -41 -7 -79 -17 -71 -10 -89 32 -78 22 5 26 12 26 41 0 19 8 51 17 70 17 35 19 36 59 30 37 -5 43 -3 49 14 3 12 4 25 1 30 -8 12 -163 10 -175 -2z"/> <path d="M11312 7218 c-17 -17 -15 -58 3 -58 10 0 15 11 15 35 0 39 -1 40 -18 23z"/> <path d="M11906 7144 c-9 -23 -7 -84 2 -84 9 0 32 66 32 89 0 17 -27 13 -34 -5z"/> <path d="M11282 7127 c-15 -34 -15 -64 -2 -72 14 -9 22 17 18 61 l-4 39 -12 -28z"/> <path d="M1584 7005 c-4 -8 1 -26 10 -40 9 -13 16 -35 16 -48 0 -14 9 -36 20 -50 11 -14 20 -29 20 -33 0 -5 27 -44 61 -89 66 -86 145 -165 166 -165 7 0 13 -9 13 -19 0 -12 16 -29 44 -45 25 -14 52 -33 60 -42 19 -18 113 -84 121 -84 3 0 5 11 5 24 0 17 -7 27 -22 32 -12 4 -31 17 -41 30 -10 13 -28 24 -40 24 -23 0 -56 29 -76 68 -9 16 -19 22 -32 19 -15 -4 -32 11 -73 66 -30 40 -71 89 -90 111 -37 40 -53 65 -80 126 -9 19 -20 42 -26 50 -5 8 -16 30 -24 48 -17 35 -24 39 -32 17z"/> <path d="M11866 6994 c-10 -25 -7 -34 9 -34 9 0 15 9 15 25 0 28 -15 34 -24 9z"/> <path d="M11833 6908 c-36 -38 -28 -63 11 -35 11 8 16 22 14 36 l-3 23 -22 -24z"/> <path d="M11221 6896 c-13 -33 -9 -43 8 -22 7 8 11 23 8 33 -3 14 -6 12 -16 -11z"/> <path d="M11192 6827 c-15 -35 -15 -47 -2 -47 14 0 22 24 18 52 -4 22 -5 22 -16 -5z"/> <path d="M11773 6812 c-25 -34 -55 -92 -48 -92 13 0 43 37 60 73 22 46 16 56 -12 19z"/> <path d="M2980 6730 c0 -23 68 -173 81 -178 5 -2 11 -19 15 -38 3 -19 10 -34 15 -34 5 0 20 -22 34 -50 14 -27 30 -50 35 -50 5 0 14 -18 20 -40 8 -29 16 -40 30 -40 16 0 20 -7 20 -31 0 -22 11 -43 35 -70 19 -22 35 -46 35 -54 0 -8 9 -15 20 -15 13 0 20 7 20 20 0 11 -3 20 -8 20 -9 0 -64 83 -97 148 -14 26 -45 79 -70 117 -24 39 -56 96 -71 128 -15 31 -31 57 -35 57 -5 0 -9 8 -9 19 0 10 -8 29 -19 42 -10 13 -21 34 -25 47 -9 27 -26 29 -26 2z"/> <path d="M11142 6717 c-17 -20 -26 -67 -13 -67 10 0 41 57 41 75 0 10 -17 5 -28 -8z"/> <path d="M11656 6654 c-9 -22 -8 -24 9 -24 8 0 15 9 15 20 0 24 -15 27 -24 4z"/> <path d="M11094 6610 c-11 -19 -25 -53 -31 -75 -7 -22 -15 -51 -19 -63 -6 -22 -5 -23 14 -11 14 9 30 39 43 81 26 85 23 118 -7 68z"/> <path d="M11558 6564 c-21 -13 -38 -31 -38 -40 0 -13 4 -12 28 4 33 24 68 62 56 61 -5 0 -26 -11 -46 -25z"/> <path d="M11470 6490 c0 -5 7 -10 15 -10 8 0 15 5 15 10 0 6 -7 10 -15 10 -8 0 -15 -4 -15 -10z"/> <path d="M11321 6399 c-22 -30 -20 -58 2 -29 7 9 25 25 41 38 l29 22 -25 0 c-16 0 -32 -11 -47 -31z"/> <path d="M2130 6378 c0 -7 18 -24 40 -37 41 -26 205 -185 223 -217 6 -10 17 -25 24 -32 7 -7 13 -18 13 -23 0 -6 23 -44 50 -86 28 -42 55 -94 62 -117 6 -23 15 -46 19 -51 28 -37 69 -286 74 -445 5 -180 52 -341 131 -454 8 -11 14 -28 14 -38 0 -9 6 -21 13 -25 8 -4 27 -30 42 -57 16 -27 37 -51 47 -54 10 -2 18 -8 18 -13 0 -15 128 -139 143 -139 8 0 20 -7 27 -15 19 -23 141 -102 170 -109 14 -4 34 -11 45 -16 85 -38 209 -68 298 -72 105 -6 133 7 40 17 -103 11 -133 17 -139 26 -3 5 -18 9 -34 9 -15 0 -50 11 -77 24 -26 14 -69 30 -95 36 -27 7 -48 16 -48 20 0 4 -22 17 -50 29 -27 12 -50 26 -50 32 0 5 -15 16 -32 24 -35 15 -121 98 -131 128 -4 11 -17 17 -37 17 -26 0 -30 3 -30 28 0 21 -11 39 -40 65 -22 19 -40 41 -40 47 0 7 -9 29 -19 49 -11 20 -29 57 -41 83 -12 27 -26 50 -31 54 -5 3 -9 18 -9 34 0 15 -7 30 -15 34 -11 4 -15 22 -15 70 0 36 -4 67 -9 71 -13 8 -23 81 -27 190 -2 81 -13 157 -43 295 -16 75 -49 161 -76 196 -14 18 -25 35 -25 38 0 12 -92 156 -100 156 -5 0 -11 8 -14 18 -6 18 -78 92 -176 181 -43 40 -90 55 -90 29z"/> <path d="M10986 6371 c-8 -12 10 -41 25 -41 13 0 11 13 -4 35 -10 13 -16 15 -21 6z"/> <path d="M11151 6258 c-5 -13 -23 -33 -40 -46 -33 -24 -41 -52 -16 -52 8 0 15 4 15 9 0 5 16 26 35 47 35 37 45 64 25 64 -6 0 -14 -10 -19 -22z"/> <path d="M11055 6132 c-14 -10 -46 -72 -36 -72 11 0 53 59 49 70 -2 5 -7 6 -13 2z"/> <path d="M10853 6103 c-7 -18 -17 -33 -23 -33 -6 0 -17 -15 -25 -34 -8 -19 -19 -37 -25 -41 -5 -3 -10 -14 -10 -23 0 -21 49 36 50 58 0 8 12 24 26 35 18 15 25 28 22 45 -3 24 -4 24 -15 -7z"/> <path d="M3348 6114 c-13 -12 18 -76 49 -100 18 -14 33 -33 33 -42 0 -10 18 -36 41 -57 22 -22 49 -57 60 -77 11 -21 33 -45 49 -53 17 -9 30 -21 30 -29 0 -7 43 -57 96 -112 53 -54 112 -118 131 -141 20 -24 44 -43 55 -43 10 0 21 -8 25 -17 7 -20 78 -93 90 -93 4 0 33 -23 63 -51 30 -27 73 -66 95 -86 22 -20 60 -47 84 -61 25 -13 58 -34 74 -48 16 -13 35 -24 42 -24 7 0 24 -13 37 -29 13 -16 46 -41 74 -55 52 -26 87 -56 65 -56 -6 0 -11 -5 -11 -12 0 -9 3 -9 12 0 7 7 27 12 45 12 28 0 33 -3 33 -25 0 -20 7 -26 38 -35 20 -5 56 -25 79 -44 23 -18 57 -39 75 -45 18 -7 60 -26 94 -42 34 -16 66 -29 71 -29 6 0 16 -7 23 -15 7 -8 20 -15 29 -15 9 0 39 -12 66 -25 28 -14 55 -25 62 -25 15 0 89 -38 125 -63 17 -13 37 -18 57 -15 19 3 36 -1 42 -9 6 -7 20 -13 30 -13 10 0 33 -9 51 -20 18 -10 57 -24 86 -31 30 -6 55 -16 58 -22 3 -8 27 -11 70 -9 56 3 68 1 79 -16 11 -15 26 -19 68 -19 29 0 64 -6 77 -14 14 -7 61 -16 105 -20 44 -3 109 -11 145 -18 36 -6 94 -16 130 -21 195 -30 857 -27 847 4 -3 8 -114 11 -383 11 -280 0 -386 3 -407 13 -16 6 -63 12 -105 12 -49 0 -85 5 -97 14 -11 7 -54 16 -95 19 -41 4 -93 13 -115 21 -22 8 -64 15 -93 16 -29 0 -65 6 -80 14 -15 8 -50 17 -77 21 -28 3 -59 10 -70 14 -44 18 -92 31 -112 31 -11 0 -26 6 -32 14 -7 8 -27 18 -44 22 -17 3 -38 10 -47 14 -8 5 -44 19 -80 31 -36 13 -85 34 -110 46 -25 13 -49 23 -53 23 -5 0 -20 9 -34 20 -14 11 -34 20 -45 20 -29 0 -304 136 -356 176 -25 19 -50 34 -57 34 -6 0 -22 11 -35 25 -13 14 -29 25 -35 25 -19 0 -277 174 -335 227 -20 18 -57 47 -82 63 -25 17 -49 37 -52 45 -3 9 -17 20 -31 25 -14 5 -25 13 -25 18 0 5 -25 29 -56 53 -31 24 -78 67 -104 94 -27 28 -77 79 -111 115 -34 36 -105 115 -156 175 -51 61 -112 132 -135 159 -23 26 -47 56 -53 66 -23 38 -60 90 -66 90 -3 0 -8 -3 -11 -6z"/> <path d="M10737 5923 c-11 -10 -8 -43 3 -43 6 0 10 11 10 25 0 26 -2 29 -13 18z"/> <path d="M10902 5839 c-7 -11 -11 -24 -8 -27 10 -9 28 15 24 32 -2 14 -5 13 -16 -5z"/> <path d="M10682 5838 c-16 -16 -15 -38 2 -38 17 0 27 22 17 38 -5 9 -10 9 -19 0z"/> <path d="M10855 5693 c-4 -36 -9 -72 -12 -80 -3 -7 -1 -13 5 -13 11 0 17 24 27 108 4 31 3 52 -3 52 -5 0 -13 -30 -17 -67z"/> <path d="M10604 5725 c-24 -37 -12 -40 15 -5 12 17 17 30 12 30 -6 0 -18 -11 -27 -25z"/> <path d="M10807 5294 c-8 -8 1 -24 14 -24 5 0 9 7 9 15 0 15 -12 20 -23 9z"/> <path d="M10215 5249 c-4 -6 -5 -13 -2 -16 7 -7 27 6 27 18 0 12 -17 12 -25 -2z"/> <path d="M10797 5203 c-11 -10 -8 -73 3 -73 6 0 10 18 10 40 0 41 -2 45 -13 33z"/> <path d="M10768 5104 c-5 -4 -8 -25 -8 -48 0 -28 3 -37 11 -29 6 6 9 27 7 48 -2 20 -6 33 -10 29z"/> <path d="M9987 5027 c-61 -58 -67 -67 -39 -67 9 0 35 23 57 50 22 28 43 50 47 50 5 0 8 5 8 10 0 19 -16 10 -73 -43z"/> <path d="M10701 4951 c-14 -24 -14 -31 -1 -31 14 0 32 38 21 45 -6 3 -15 -3 -20 -14z"/> <path d="M9895 4946 c-38 -20 -69 -56 -59 -66 12 -12 71 27 80 53 8 24 4 26 -21 13z"/> <path d="M9773 4843 c-20 -8 -15 -23 7 -23 11 0 20 7 20 15 0 15 -6 17 -27 8z"/> <path d="M10626 4835 c-9 -9 -16 -23 -16 -31 0 -8 -6 -14 -13 -14 -12 0 -37 -39 -37 -57 0 -12 33 23 62 65 31 44 33 66 4 37z"/> <path d="M9698 4780 c-14 -16 -41 -36 -58 -45 -17 -9 -34 -23 -37 -31 -3 -7 -11 -14 -19 -14 -7 0 -18 -9 -24 -20 -16 -31 15 -26 36 5 9 14 24 25 34 25 10 0 25 11 34 25 9 14 22 25 29 25 12 0 57 43 57 54 0 15 -28 3 -52 -24z"/> <path d="M10508 4704 c-34 -18 -56 -54 -34 -54 17 0 76 47 76 61 0 12 -10 11 -42 -7z"/> <path d="M9483 4617 c-35 -24 -46 -52 -15 -39 32 13 62 37 62 49 0 17 -9 15 -47 -10z"/> <path d="M10391 4601 c-45 -43 -51 -54 -23 -44 28 11 82 60 82 75 0 17 -20 7 -59 -31z"/> <path d="M9399 4550 l-24 -21 35 7 c41 8 44 9 35 23 -9 16 -20 14 -46 -9z"/> <path d="M10245 4512 c-16 -10 -41 -22 -55 -25 -14 -4 -36 -16 -50 -27 l-25 -20 23 0 c23 0 34 4 109 44 17 9 38 16 47 16 9 0 16 7 16 15 0 20 -29 19 -65 -3z"/> <path d="M9305 4491 c-6 -5 -38 -23 -72 -41 -35 -18 -63 -35 -63 -39 0 -3 -24 -17 -52 -31 -29 -13 -69 -36 -89 -52 -20 -15 -54 -33 -74 -40 -46 -16 -55 -33 -21 -42 13 -3 32 -9 41 -12 13 -5 15 -2 9 20 -5 23 -3 26 18 26 14 0 50 18 82 40 31 22 60 40 64 40 4 0 29 16 56 35 27 19 55 35 61 35 12 0 65 51 65 63 0 10 -14 9 -25 -2z"/> <path d="M10005 4421 c-3 -5 -1 -12 4 -15 12 -8 41 3 41 15 0 12 -37 12 -45 0z"/> <path d="M7335 4400 c-11 -5 -51 -9 -90 -10 -38 -1 -79 -5 -90 -10 -20 -8 -20 -8 0 -16 40 -17 151 -7 203 18 42 21 21 37 -23 18z"/> <path d="M9840 4403 c-79 -7 -70 -23 12 -23 42 0 79 4 82 9 6 10 -18 22 -37 19 -7 -1 -32 -3 -57 -5z"/> <path d="M3704 4379 c-8 -13 32 -22 134 -29 57 -4 108 -12 115 -19 6 -6 25 -11 42 -11 17 0 40 -7 51 -15 10 -8 31 -15 46 -15 15 0 47 -13 71 -30 25 -16 49 -30 54 -30 5 0 31 -15 58 -32 28 -18 63 -40 78 -48 43 -22 197 -161 197 -178 0 -3 21 -29 48 -57 59 -66 66 -75 82 -106 7 -13 16 -26 19 -29 4 -3 19 -26 33 -51 71 -122 260 -289 406 -359 76 -37 174 -70 204 -70 13 0 45 -7 72 -15 56 -17 378 -21 430 -6 17 5 58 17 91 26 123 36 295 111 310 135 3 6 15 10 26 10 11 0 30 6 42 14 22 13 67 29 182 62 49 14 97 16 269 15 190 -2 216 -4 285 -26 41 -13 77 -22 79 -20 9 9 -21 35 -40 35 -10 0 -29 6 -41 14 -20 13 -110 24 -238 30 -62 3 -295 -18 -384 -34 -33 -6 -67 -18 -76 -25 -8 -8 -22 -15 -30 -15 -8 0 -56 -20 -107 -45 -50 -25 -96 -45 -102 -45 -5 0 -46 -18 -91 -40 -45 -22 -85 -38 -88 -35 -4 2 -25 -2 -47 -10 -21 -8 -61 -14 -88 -15 -27 0 -79 -5 -115 -11 -49 -9 -80 -9 -126 0 -33 6 -90 13 -128 16 -38 2 -77 11 -89 20 -12 8 -33 15 -45 15 -23 0 -71 18 -135 51 -20 10 -43 19 -51 19 -8 0 -19 11 -25 25 -7 15 -20 25 -32 25 -12 0 -38 16 -58 36 -20 20 -54 47 -74 60 -21 14 -38 29 -38 36 0 6 -26 40 -57 76 -31 35 -65 81 -76 101 -10 20 -24 41 -31 46 -7 6 -25 29 -39 53 -15 23 -32 42 -37 42 -5 0 -16 16 -24 35 -8 19 -22 35 -30 35 -7 0 -24 16 -35 36 -12 20 -30 38 -41 41 -11 3 -20 11 -20 19 0 7 -15 21 -32 30 -18 9 -46 31 -63 49 -18 20 -48 38 -75 46 -25 7 -68 32 -97 56 -44 37 -58 43 -97 43 -31 0 -48 5 -54 16 -9 16 -37 24 -152 45 -67 13 -210 18 -216 8z"/> <path d="M9712 4381 c4 -13 18 -16 19 -4 0 4 -5 9 -11 12 -7 2 -11 -2 -8 -8z"/> <path d="M9600 4372 c-75 -4 -109 -22 -39 -21 55 0 128 13 114 19 -5 3 -39 4 -75 2z"/> <path d="M9396 4331 c-10 -11 -27 -21 -39 -23 -26 -4 -35 -28 -10 -28 10 1 36 9 58 20 22 11 50 19 62 20 35 0 36 17 2 24 -47 9 -54 8 -73 -13z"/> <path d="M9220 4257 c-90 -61 -125 -83 -146 -95 -13 -7 -24 -17 -24 -22 0 -5 -17 -18 -37 -29 -49 -25 -143 -130 -143 -159 0 -5 -23 -31 -50 -58 -28 -27 -56 -64 -62 -81 -7 -18 -15 -33 -18 -33 -9 0 -80 -104 -80 -117 0 -6 -4 -13 -10 -15 -5 -1 -31 -22 -57 -46 -77 -68 -235 -192 -246 -192 -21 0 -127 -43 -127 -51 0 -15 70 -10 98 6 15 8 38 19 52 25 35 14 57 29 120 80 146 119 210 188 273 295 20 33 63 91 96 129 34 38 61 75 61 82 0 19 108 114 191 168 40 26 86 57 101 67 15 11 35 19 45 19 18 1 63 32 63 44 0 15 -69 3 -100 -17z"/> <path d="M8830 4230 c-12 -11 -30 -20 -39 -20 -9 0 -25 -7 -35 -15 -11 -8 -28 -15 -37 -15 -10 0 -29 -11 -43 -25 -14 -14 -32 -25 -40 -25 -9 0 -30 -9 -48 -20 -18 -11 -43 -20 -55 -20 -12 0 -24 -4 -28 -9 -11 -19 14 -21 57 -5 24 8 57 19 73 23 56 15 108 41 123 62 11 16 21 20 43 15 22 -4 29 -1 34 14 4 11 17 23 31 26 14 4 23 11 21 18 -6 19 -32 18 -57 -4z"/> <path d="M8420 4050 c-20 -12 -80 -37 -105 -43 -44 -12 -111 -39 -120 -49 -19 -20 81 -2 138 26 31 14 63 26 71 26 8 0 18 5 21 10 3 6 19 10 36 10 19 0 29 5 29 15 0 17 -45 20 -70 5z"/> <path d="M5245 3961 c-9 -15 36 -41 61 -35 16 4 26 0 34 -15 8 -16 20 -21 48 -21 20 0 64 -9 97 -19 51 -17 159 -40 270 -58 17 -3 44 -11 62 -19 17 -8 48 -14 70 -15 21 0 61 -5 88 -10 28 -5 64 -11 80 -13 17 -2 71 -8 120 -15 107 -13 605 -15 605 -2 0 17 -26 19 -292 20 -147 1 -291 7 -320 13 -29 6 -93 12 -143 15 -54 3 -96 10 -105 18 -8 7 -33 15 -55 18 -77 10 -191 34 -212 45 -12 7 -33 12 -48 12 -14 0 -53 9 -87 21 -34 11 -88 22 -120 23 -45 1 -62 7 -78 24 -21 22 -64 30 -75 13z"/> <path d="M8086 3923 c-3 -4 -39 -9 -79 -12 -43 -4 -70 -10 -67 -16 3 -5 14 -9 25 -8 124 15 149 20 153 31 4 13 -20 17 -32 5z"/> <path d="M7814 3865 c-10 -8 -32 -15 -49 -15 -16 0 -48 -7 -70 -15 -22 -8 -60 -14 -85 -15 -26 0 -51 -5 -57 -11 -7 -7 -55 -14 -107 -17 -79 -4 -98 -8 -113 -25 -18 -20 -18 -20 57 -12 41 4 91 9 110 10 19 2 53 8 75 15 22 6 69 16 105 22 36 5 72 16 81 24 8 8 30 14 48 14 35 0 71 15 71 30 0 15 -44 12 -66 -5z"/> <path d="M6799 3749 c-25 -15 18 -19 188 -20 188 0 283 7 283 23 0 11 -454 8 -471 -3z"/> <path d="M7167 3478 c13 -15 139 -80 182 -93 12 -4 39 -18 58 -31 20 -13 47 -24 60 -24 l25 0 -29 30 c-15 17 -33 30 -39 30 -6 0 -32 11 -58 25 -26 14 -54 25 -62 25 -8 0 -27 9 -42 20 -15 11 -46 23 -67 27 -35 6 -38 4 -28 -9z"/> <path d="M7517 3344 c-9 -10 2 -24 19 -24 8 0 14 7 14 15 0 15 -21 21 -33 9z"/> <path d="M8149 3319 c-10 -6 -7 -9 14 -9 29 0 35 5 14 13 -8 3 -20 1 -28 -4z"/> <path d="M7610 3306 c0 -11 67 -36 95 -36 35 0 32 16 -5 24 -16 3 -43 9 -60 12 -16 4 -30 3 -30 0z"/> <path d="M7995 3300 c-3 -5 3 -10 14 -10 12 0 21 5 21 10 0 6 -6 10 -14 10 -8 0 -18 -4 -21 -10z"/> <path d="M7755 3280 c3 -5 12 -10 20 -10 8 0 17 5 20 10 4 6 -5 10 -20 10 -15 0 -24 -4 -20 -10z"/> </g> </svg> 